<?xml version="1.0" encoding="UTF-8"?><svg id="a" xmlns="http://www.w3.org/2000/svg" viewBox="0 0 556.07 296.11"><defs><style>.b{fill:#2c2627;}.c{fill:#2b2526;}.d{fill:#292325;}.e{fill:#2f292a;}.f{fill:#2c2628;}.g{fill:#2e2829;}.h{fill:#30292b;}.i{fill:#231d1f;}.j{fill:#292324;}.k{fill:#282223;}.l{fill:#2a2425;}.m{fill:#2a2426;}.n{fill:#272123;}.o{fill:#282224;}.p{fill:#282324;}.q{fill:#272122;}</style></defs><path class="i" d="M531.13,220.02c-1.12-9.48-2.21-18.68-3.35-28.37-1.56,1.07-2.87,2-4.22,2.88-3.01,1.96-6,3.95-9.07,5.82-1.15,.7-1.66,1.55-1.73,2.86-.09,1.46-.58,2.92-.49,4.35,.26,4.48-2.33,6.52-6.27,7.64-.27-3.54-.55-7.1-.83-10.72-1.18,.16-1.92,1.01-2.87,1.44-.6,.27-1.32,.77-1.77,.04-.39-.63,.14-1.27,.67-1.71,.8-.68,1.65-1.3,2.61-2.06-2.99-2.13-5.94-4.21-9.15-6.49,2.13-.85,3.96-1.55,5.76-2.31,.75-.31,1.37-.21,2.07,.17,1.8,.99,3.66,1.89,5.46,2.88,.7,.39,1.24,.51,1.99,.02,4.5-2.96,9.03-5.89,13.58-8.78,1.38-.87,.52-1.2-.23-1.73-6.8-4.74-13.57-9.53-20.4-14.23-1.35-.93-1.57-1.31-.15-2.56,1.71-1.51,3.15-1.51,5.16-.83,9.58,3.23,19.22,6.29,28.82,9.45,1.15,.38,2.03,.38,3.14-.26,3.86-2.22,7.64-4.59,11.75-6.35,1.4-.6,3.27-1.52,4.21-.16,.94,1.36-.77,2.64-1.78,3.6-3.19,3.04-6.83,5.52-10.49,7.95-1.43,.95-2.16,2.06-2.41,3.8-1.22,8.43-2.85,16.81-3.76,25.27-.46,4.24-3.18,6.05-6.23,8.39Z"/><path class="q" d="M402.19,238.29c-2.27,.76-4.54,1.49-6.8,2.28-.81,.28-1.2,.19-1.36-.75-.13-.77-.44-1.55,.67-1.62,4.97-.32,5.24-4.12,5.85-7.73,.1-.62-.24-1.71,.81-1.75,.96-.04,2.29-.12,1.73,1.66-.28,.88-.38,1.82-.56,2.74-.19,1.01-.68,1.9,.49,2.89,1.1,.94,.46,1.85-.84,2.29Z"/><path class="n" d="M121.47,88.96c-.4-.06-.92-.16-1.45-.21-1.9-.19-3.81-.6-5.71,.02-1.01,.33-1.55-.16-1.6-1.11-.12-2.29-.88-4.41-1.59-6.53-.35-1.06,.11-1.38,.99-1.67,1-.33,1.42,.15,1.46,.99,.25,4.56,2.76,6.33,7.13,5.92,1.61-.15,1.67,.81,1.27,1.99-.07,.22-.01,.56-.52,.61Z"/><path class="j" d="M351.6,197.82c-.19,.32-.41,.58-.53,.88-.96,2.36-1.52,4.82-1.36,7.38,.07,1.08-.46,1.12-1.27,1.18-.94,.07-1.25-.19-1.26-1.18-.02-2.9,.5-5.68,1.61-8.35,.16-.38,.18-1.03,.88-.78,.55,.2,1.08,.48,1.93,.87Z"/><path class="p" d="M388.05,184.54c-.56,.28-.88-.06-1.2-.24-2.17-1.19-4.46-2.04-6.93-2.27-1.21-.11-1.08-.77-1.06-1.62,.03-1.19,.73-.99,1.46-.88,2.71,.41,5.29,1.21,7.66,2.58,.37,.21,1.21,.21,.9,1-.21,.54-.59,1.01-.84,1.42Z"/><path class="o" d="M397.77,192.07c.28,.52,.55,1.06,.86,1.57,.38,.64,.58,1.2-.36,1.55-.67,.25-1.28,.74-1.79-.31-1.12-2.34-2.58-4.48-4.35-6.37-.88-.93,.02-1.23,.4-1.74,.58-.8,1.05-.45,1.56,.15,1.38,1.61,2.69,3.27,3.69,5.15Z"/><path class="g" d="M350.56,220.52c-.97-2.33-1.77-4.64-2.41-7.01-.24-.88-.02-1.34,.95-1.48,.79-.11,1.33-.27,1.54,.85,.44,2.28,1.28,4.45,2.24,6.57,.42,.92,.73,1.6-.57,2.17-1.4,.62-1.33-.56-1.75-1.09Z"/><path class="l" d="M358.6,185.57c.6-.58,1.02-.29,1.38,.32,.31,.52,1.08,.95,.2,1.62-2.16,1.65-4.17,3.45-5.82,5.63-.65,.86-1.12,0-1.64-.28-.66-.36-.78-.72-.25-1.38,1.79-2.24,3.87-4.15,6.13-5.92Z"/><path class="o" d="M374.47,241.29c-.73-.17-1.04-.23-1.35-.32-2.61-.77-5.08-1.87-7.44-3.22-.71-.41-1.03-.78-.44-1.51,.41-.51,.54-1.41,1.59-.74,2.18,1.4,4.57,2.37,7.06,3.11,.43,.13,.94,.17,.81,.87-.11,.58-.15,1.17-.22,1.82Z"/><path class="e" d="M153.52,110.18c.07,1.02,2.34,2.15-.16,3.19-.6,.25-.95,.22-1.29-.37-1.24-2.19-2.37-4.44-3.92-6.45-.76-.99,.38-1.2,.8-1.64,.59-.63,1.05-.23,1.42,.34,1.04,1.62,2.07,3.24,3.15,4.94Z"/><path class="d" d="M385.44,263.6c-.46,.38-.71-.31-1.06-.62-.42-.37-1.1-.7-.43-1.41,1.92-2.01,3.79-4.07,5.49-6.28,.61-.79,1.04,.09,1.47,.36,.38,.24,1.05,.45,.48,1.19-1.78,2.31-3.72,4.49-5.95,6.77Z"/><path class="d" d="M354.47,227.25c-.69-.63-.48-1.09,.28-1.5,.63-.35,1.15-.94,1.79,.06,1.36,2.14,3.04,4.03,4.95,5.68,1.02,.89,.18,1.3-.24,1.9-.62,.9-1.05,.34-1.56-.14-1.95-1.81-3.7-3.79-5.21-6.01Z"/><path class="c" d="M211.71,266.12c-.5-.62-.15-1.03,.34-1.32,.5-.3,.97-1.13,1.67-.32,1.79,2.04,3.55,4.11,5.35,6.15,.77,.87-.19,1.09-.54,1.55-.37,.49-.75,.75-1.27,.17-1.85-2.08-3.7-4.15-5.56-6.23Z"/><path class="j" d="M246.72,291.4c.21-.62,.39-1.25,.62-1.86,.23-.59,.65-.21,.98-.12,2.51,.65,5,1.37,7.52,1.95,.98,.23,.94,.74,.71,1.42-.16,.49,.08,1.38-.95,1.11-2.76-.72-5.52-1.46-8.28-2.21-.18-.05-.35-.16-.61-.29Z"/><path class="o" d="M389.17,241.93c-3.29,.46-6.4,.66-9.5,.24-.76-.1-.33-.88-.32-1.35,.01-.52,0-1.13,.81-1.05,2.78,.26,5.55,.11,8.32-.24,.84-.1,.69,.58,.77,1.08,.08,.49,.3,.99-.09,1.32Z"/><path class="k" d="M394.75,252c-.68,.26-1.02-.38-1.52-.6-.47-.21-.72-.48-.36-1.06,1.46-2.35,2.77-4.8,3.87-7.35,.41-.94,1-.22,1.48-.06,.43,.15,1.17,.19,.81,1-1.19,2.73-2.55,5.36-4.17,7.86-.04,.06-.07,.11-.12,.2Z"/><path class="l" d="M401.25,200.17c.79,2.8,1.39,5.44,1.82,8.13,.14,.89-.31,1.05-.97,1.08-.59,.03-1.37,.48-1.52-.63-.35-2.63-.93-5.21-1.72-7.74-.31-1.01,.29-1.07,.97-1.26,.69-.19,1.34-.47,1.41,.43Z"/><path class="b" d="M374.6,272.73c-.66,.51-1.09,.28-1.43-.38-.27-.52-1.07-.96-.18-1.64,2.16-1.65,4.3-3.33,6.44-5.01,.77-.61,1,.13,1.4,.52,.55,.54,.79,1.02,.04,1.6-2.1,1.62-4.18,3.27-6.27,4.91Z"/><path class="f" d="M355.16,283.33c-2.17,.85-4.35,1.67-6.5,2.56-.88,.37-1.34,.16-1.64-.74-.26-.78-.39-1.29,.67-1.64,2.21-.74,4.35-1.65,6.52-2.51,.79-.31,1.48-.9,2,.47,.47,1.25-.2,1.51-1.05,1.86Z"/><path class="d" d="M203.42,254.31c-.37-.46-.59-1.01,.4-1.53,.79-.41,1.32-.7,1.92,.31,1.26,2.11,2.61,4.18,4.03,6.19,.71,.99-.09,1.22-.57,1.71-.72,.72-1.11,.32-1.54-.33-1.36-2.06-2.74-4.09-4.25-6.35Z"/><path class="m" d="M178.49,194.81c-.8-2.66-1.5-5.15-2.32-7.6-.37-1.13,.4-1.11,1.05-1.4,.88-.39,1.19,0,1.42,.77,.71,2.41,1.41,4.83,2.2,7.22,.32,.96-.22,1.19-.9,1.36-.59,.15-1.35,.58-1.45-.35Z"/><path class="o" d="M229.4,282.11c-.57,.34-.86,.02-1.16-.22-2.02-1.61-4.02-3.23-6.06-4.82-.78-.61-.67-1.08-.06-1.76,.62-.68,1.02-.75,1.77-.1,1.84,1.61,3.74,3.16,5.72,4.6,1.55,1.13-.18,1.59-.21,2.29Z"/><path class="o" d="M436.68,232.16c-.16-.91-.94-1.88,.75-2.26,2.32-.52,4.61-1.22,6.88-1.97,.95-.32,1.28-.08,1.56,.8,.27,.87,.18,1.36-.78,1.62-2.43,.67-4.84,1.4-7.26,2.09-.43,.12-.92,.36-1.14-.27Z"/><path class="c" d="M163.72,139.93c-.85,.39-1.42,.47-1.74-.71-.63-2.3-1.38-4.58-2.23-6.81-.44-1.14,.15-1.34,.95-1.69,1.06-.46,1.22,.2,1.46,.96,.72,2.28,1.46,4.55,2.26,6.81,.28,.81,.16,1.28-.69,1.45Z"/><path class="j" d="M408.48,238.53c-.69-.91-.26-2.08,.86-2.28,2.33-.43,4.68-.78,7-1.28,1-.22,1.41-.06,1.57,1.01,.13,.9-.02,1.31-.98,1.46-2.41,.37-4.81,.84-7.21,1.26-.43,.08-.89,.32-1.25-.17Z"/><path class="m" d="M166.4,145.05c.73,2.38,1.45,4.79,2.2,7.18,.28,.89,.04,1.27-.88,1.53-.87,.25-1.3,.24-1.57-.76-.64-2.36-1.36-4.7-2.12-7.02-.3-.93,0-1.39,.89-1.53,.59-.1,1.37-.58,1.48,.61Z"/><path class="o" d="M403.74,214.53c.05,.84,.13,1.7,.14,2.55,.02,1.85,.01,3.7,0,5.55,0,.8,.06,1.49-1.22,1.41-1.23-.08-1.31-.57-1.28-1.58,.05-2.38,0-4.76-.08-7.13-.03-.71,.02-1.21,.84-1.16,.53,.03,1.2-.42,1.59,.36Z"/><path class="k" d="M233.44,285.29c-.26-.68,.38-1.04,.59-1.55,.21-.52,.55-.59,1.09-.31,2.4,1.26,4.82,2.48,7.25,3.69,1.03,.51,.24,1.1,.11,1.65-.14,.56-.35,.98-1.09,.65-2.6-1.16-5.14-2.43-7.59-3.89-.11-.07-.22-.14-.36-.23Z"/><path class="c" d="M328.42,289.65c.18,.99,.77,2-.9,2.25-2.41,.35-4.81,.8-7.19,1.33-1.03,.23-1.21-.15-1.38-1.01-.17-.91,.03-1.33,.97-1.5,2.47-.42,4.92-.9,7.38-1.39,.48-.09,.92-.23,1.1,.31Z"/><path class="c" d="M174.43,172.36c.78,2.73,1.47,5.23,2.22,7.7,.22,.73,.14,1.16-.68,1.25-.64,.08-1.39,.68-1.72-.52-.68-2.49-1.43-4.97-2.18-7.44-.22-.74-.08-1.17,.74-1.22,.6-.03,1.46-.88,1.62,.23Z"/><path class="n" d="M193.05,234.58c-.86-2.05-1.71-4.13-2.62-6.19-.36-.82-.35-1.27,.65-1.59,.83-.27,1.3-.34,1.67,.6,.83,2.09,1.76,4.14,2.63,6.21,.34,.8,1.02,1.52-.4,2.18-1.53,.72-1.41-.59-1.93-1.21Z"/><path class="j" d="M477.9,215.81c2.33-1,4.66-1.92,6.93-2.99,1.02-.48,1.19,.12,1.57,.79,.46,.8,.21,1.19-.54,1.51-2.31,.97-4.63,1.91-6.91,2.96-.81,.37-1.18,.2-1.5-.56-.3-.72-.6-1.39,.44-1.7Z"/><path class="d" d="M13.81,5.62c-.12-.7,.19-1.3,.4-1.92,.19-.58,.65-.27,.98-.18,2.53,.75,5.06,1.55,7.59,2.29,.97,.28,.58,.88,.38,1.39-.18,.47-.03,1.33-1.04,1.02-2.59-.8-5.19-1.58-7.78-2.37-.18-.06-.36-.16-.54-.24Z"/><path class="m" d="M450.64,228.15c-.4-1.08-1.09-2.01,.67-2.47,2.24-.58,4.42-1.4,6.6-2.2,.83-.31,1.32-.35,1.65,.63,.31,.91,.23,1.44-.8,1.76-2.34,.73-4.65,1.56-6.98,2.33-.4,.13-.88,.42-1.14-.05Z"/><path class="d" d="M431.92,234c-.7,.18-1.34,.35-1.98,.5-1.92,.46-3.84,.93-5.77,1.37-.74,.17-1.44,.53-1.7-.79-.24-1.21,.16-1.46,1.18-1.67,2.32-.49,4.61-1.09,6.91-1.65,.65-.16,1.21-.18,1.31,.65,.06,.53,.58,1.09,.05,1.59Z"/><path class="n" d="M364.93,181.93c2.8-1.24,5.23-1.89,7.73-2.33,.84-.15,1.22-.01,1.27,.93,.05,.79,.19,1.44-.9,1.57-2.33,.28-4.53,1.02-6.69,1.91-.77,.32-1.43,.97-2.05-.36-.65-1.4,.25-1.58,.63-1.72Z"/><path class="c" d="M342.28,288.07c-2.82,.78-5.3,1.45-7.78,2.15-.78,.22-1.21,.1-1.32-.84-.09-.74-.44-1.34,.69-1.62,2.43-.6,4.84-1.29,7.25-2.01,.79-.23,1.27-.15,1.44,.73,.13,.69,.57,1.47-.27,1.6Z"/><path class="k" d="M261.16,294.6c.07-.56,.12-1.16,.24-1.74,.15-.74,.73-.38,1.12-.35,2.45,.19,4.89,.49,7.34,.59,1.16,.05,1.23,.55,1.19,1.48-.04,1.07-.56,1.12-1.41,1.03-2.37-.24-4.76-.41-7.13-.63-.44-.04-.95,.05-1.34-.39Z"/><path class="l" d="M170.45,158.68c.79,2.68,1.49,5.16,2.25,7.63,.32,1.03-.36,1.03-1.01,1.24-.71,.23-1.18,.4-1.45-.61-.65-2.5-1.39-4.97-2.16-7.43-.25-.8,.03-1.15,.76-1.22,.63-.06,1.54-.77,1.6,.4Z"/><path class="o" d="M184.62,208.72c-.87,.59-1.5,.51-1.86-.66-.7-2.28-1.45-4.54-2.25-6.79-.35-.99-.03-1.42,.91-1.71,.93-.29,1.27,.02,1.54,.9,.7,2.35,1.49,4.67,2.26,6.99,.2,.61,.46,1.21-.59,1.26Z"/><path class="m" d="M104.68,61.22c.37,.41,.12,.85-.58,1.3-.68,.43-1.17,.77-1.78-.13-1.4-2.08-2.84-4.13-4.33-6.15-.66-.9,.18-1.07,.57-1.53,.59-.7,1.09-.59,1.57,.09,1.45,2.04,2.9,4.09,4.55,6.43Z"/><path class="o" d="M189.54,222.31c-.89,.59-1.41,.55-1.79-.57-.79-2.32-1.72-4.6-2.62-6.88-.36-.9-.05-1.26,.83-1.56,.85-.29,1.26-.33,1.59,.68,.77,2.33,1.65,4.62,2.57,6.9,.33,.82,.24,1.27-.59,1.43Z"/><path class="c" d="M157.54,125.71c-.91-2.33-1.77-4.62-2.7-6.88-.44-1.07,.35-1.15,.98-1.5,.83-.46,1.19-.13,1.46,.62,.83,2.3,1.66,4.6,2.53,6.88,.26,.69,.48,1.28-.53,1.48-.73,.15-1.64,.79-1.74-.61Z"/><path class="m" d="M464.62,221.08c2.25-.87,4.67-1.77,7.06-2.74,.92-.37,1.18,.14,1.41,.81,.22,.63,.49,1.22-.49,1.56-2.43,.86-4.85,1.76-7.23,2.74-.96,.4-1.1-.12-1.38-.78-.3-.7-.45-1.27,.63-1.6Z"/><path class="o" d="M314.21,292.07c.58,.95,.07,2.08-1.04,2.22-2.43,.29-4.86,.52-7.28,.83-.8,.1-1.27-.02-1.26-.93,0-.69-.3-1.45,.88-1.56,2.56-.24,5.12-.58,7.68-.84,.34-.04,.81-.24,1.02,.29Z"/><path class="j" d="M403.38,239.66c-.26,.03-.52,.06-.78,.09-2.49,.28-4.99,.53-7.47,.87-.88,.12-1.23-.13-1.2-.99,.02-.66-.36-1.42,.89-1.52,2.56-.19,5.12-.54,7.67-.85,.48-.06,1.01-.17,1.03,.51,.02,.61,.48,1.27-.15,1.87Z"/><path class="o" d="M299.7,295.63c-.24,0-.43,0-.63,.02-2.57,.12-5.14,.22-7.71,.38-1.01,.06-1.14-.41-1.18-1.29-.04-.98,.25-1.23,1.19-1.25,2.44-.05,4.88-.22,7.32-.31,.46-.02,1.16-.28,1.18,.59,0,.62,.36,1.29-.16,1.86Z"/><path class="j" d="M117,102.77c-.83,.52-2.12-.15-2.2-1.16-.2-2.31-.33-4.63-.63-6.93-.14-1.03,.24-1.23,1.12-1.38,.97-.17,1.32,.14,1.39,1.07,.18,2.45,.4,4.89,.61,7.34,.03,.39,.15,.8-.28,1.07Z"/><path class="b" d="M96.06,49.71c.66,.8-.13,1.04-.51,1.43-.42,.43-.79,.97-1.44,.28-1.82-1.93-3.64-3.85-5.48-5.77-.67-.7-.04-1.08,.36-1.46,.37-.36,.69-1.09,1.4-.34,1.87,1.97,3.78,3.9,5.67,5.85Z"/><path class="o" d="M275.7,295.44c.3-.7-.68-2.09,1.23-1.99,2.45,.14,4.91,.17,7.36,.13,1.03-.01,1.19,.39,1.19,1.29,0,.93-.2,1.28-1.21,1.23-2.45-.12-4.9-.11-7.36-.17-.43-.01-.95,.16-1.21-.49Z"/><path class="d" d="M77.7,36.1c-.33-.7,.49-1.03,.76-1.56,.3-.58,.76-.39,1.15-.06,2.04,1.69,4.06,3.42,6.13,5.07,.64,.51,.45,.93,0,1.26-.42,.3-.57,1.38-1.32,.8-2.25-1.75-4.41-3.61-6.72-5.51Z"/><path class="o" d="M73.9,32.84c-.36,.29-.65,.05-.91-.12-2.16-1.42-4.3-2.87-6.48-4.25-.9-.57-.4-1.05-.1-1.63,.36-.7,.74-1.02,1.52-.48,2.02,1.38,4.09,2.7,6.12,4.08,.96,.65,.84,1.89-.15,2.4Z"/><path class="l" d="M94.41,90.85c.51,.84,.62,1.39-.61,1.89-2.08,.83-4.08,1.9-6.05,2.99-.94,.52-1.35,.3-1.86-.56-.53-.9-.2-1.31,.58-1.68,2.14-1.04,4.28-2.11,6.42-3.16,.68-.33,1.28-.45,1.53,.53Z"/><path class="k" d="M49.3,18.71c-.49,.19-.8-.1-1.14-.25-2.23-1-4.43-2.08-6.71-2.98-1.07-.42-.78-.92-.49-1.64,.28-.7,.5-1.15,1.4-.72,2.27,1.07,4.58,2.06,6.87,3.11,.37,.17,1.02,.23,.8,.9-.18,.56-.49,1.07-.73,1.58Z"/><path class="n" d="M364.15,276.11c1.05-.57,2.12-1.12,3.15-1.72,.71-.42,1.2-.64,1.74,.32,.52,.92,.4,1.37-.52,1.84-2.13,1.1-4.22,2.26-6.3,3.44-.83,.47-1.33,.55-1.85-.48-.55-1.09,.03-1.39,.81-1.77,1.01-.5,1.99-1.07,2.98-1.61h0Z"/><path class="o" d="M9.11,4.39c-.4-.08-.71-.13-1.01-.2-2.38-.55-4.75-1.17-7.16-1.62C-.1,2.37-.06,1.9,.06,1.09,.2,.2,.43-.18,1.44,.08c2.37,.61,4.77,1.09,7.14,1.67,.38,.09,1.08-.05,1.01,.65-.06,.64-.3,1.26-.48,1.99Z"/><path class="o" d="M36.01,13.54c-.26-.21-.49-.49-.78-.61-2.35-.91-4.68-1.85-7.08-2.63-1.16-.38-.71-.95-.52-1.64,.21-.79,.49-1.08,1.37-.73,2.34,.93,4.72,1.76,7.07,2.65,.39,.15,1.03,.19,.82,.87-.17,.56-.45,1.09-.88,2.1Z"/><path class="d" d="M138.52,96.4c-.39-.69,.32-1,.58-1.46,.24-.42,.51-.8,1.08-.39,2.25,1.64,4.22,3.58,6.11,5.61,.53,.57,.17,.99-.34,1.25-.44,.23-.68,1.24-1.41,.49-1.89-1.94-3.79-3.86-6.02-5.5Z"/><path class="o" d="M117.34,107.76c0,.36,0,.62-.02,.89-.17,2.44-.39,4.88-.5,7.32-.05,1.02-.47,1.17-1.37,1.06-.88-.11-1.25-.32-1.14-1.34,.26-2.43,.37-4.88,.54-7.32,.03-.44-.08-1,.66-.92,.62,.07,1.3-.17,1.84,.31Z"/><path class="k" d="M62.67,23.26c.36,.67-.29,1.06-.49,1.57-.21,.53-.58,.66-1.11,.37-2.33-1.27-4.65-2.55-7-3.79-.85-.45-.42-.96-.14-1.47,.26-.46,.27-1.3,1.2-.79,2.39,1.3,4.78,2.58,7.18,3.87,.12,.06,.22,.15,.36,.24Z"/><path class="m" d="M80.82,97.14c.6-.53,.99-.01,1.38,.6,.38,.59,.67,1.02-.17,1.61-1.95,1.36-3.81,2.85-5.43,4.59-.76,.81-1.17,.38-1.75-.16-.58-.53-.81-.91-.11-1.57,1.87-1.77,3.81-3.45,6.08-5.06Z"/><path class="m" d="M109.34,69.66c.49,1.14,1.07,2.62,1.76,4.04,.4,.82,.14,1.15-.6,1.48-.78,.36-1.28,.44-1.7-.51-.99-2.23-2.03-4.45-3.14-6.62-.45-.89,.03-1.13,.65-1.49,.67-.39,1.16-.52,1.55,.35,.38,.84,.87,1.63,1.48,2.75Z"/><path class="l" d="M99.19,88.1c2.73-.78,5.24-1.31,7.79-1.72,.92-.15,1.13,.29,1.13,1.1,0,.63,.37,1.22-.74,1.4-2.41,.4-4.8,.91-7.16,1.53-.97,.26-1.19-.16-1.35-.87-.14-.62-.53-1.37,.33-1.45Z"/><path class="b" d="M110.67,134.73c.47,.75,.11,1.04-.1,1.33-1.52,2.1-3.37,3.88-5.39,5.51-.73,.59-1.07,.16-1.42-.34-.35-.5-1.04-1.05-.18-1.66,1.96-1.39,3.57-3.12,5.02-5.03,.44-.59,1.85-.24,2.07,.19Z"/><path class="o" d="M111.33,130.13c.09-.35,.12-.61,.23-.84,1-2.12,1.47-4.39,1.78-6.69,.15-1.17,.71-1.11,1.61-1.01,1.11,.12,1.01,.7,.87,1.5-.43,2.35-.87,4.69-1.85,6.88-.17,.37-.15,1.08-.81,.92-.63-.15-1.2-.5-1.83-.77Z"/><path class="j" d="M68.33,115.4c-.7,.26-1.24-.25-1.83-.45-.72-.24-.32-.75-.16-1.13,1.03-2.37,2.42-4.53,3.93-6.63,.49-.68,.97-.61,1.44-.1,.38,.41,1.38,.6,.67,1.5-1.56,1.98-2.85,4.12-3.86,6.43-.05,.12-.12,.23-.19,.38Z"/><path class="l" d="M77.31,143.59c-.02-.64,.44-1.06,.69-1.57,.28-.58,.68-.45,1.14-.2,2.06,1.1,4.25,1.85,6.56,2.17,1.11,.15,.78,.81,.7,1.42-.07,.55,.06,1.27-.92,1.1-2.69-.47-5.26-1.28-7.67-2.57-.17-.09-.32-.23-.5-.35Z"/><path class="q" d="M200.25,243.67c.57,1.04,1.1,2.11,1.72,3.13,.48,.79,.62,1.29-.39,1.85-1.01,.56-1.35,.18-1.77-.65-1.08-2.12-2.18-4.23-3.35-6.3-.46-.83-.38-1.26,.51-1.66,.76-.35,1.26-.54,1.69,.45,.47,1.09,1.11,2.1,1.68,3.14l-.09,.05Z"/><path class="o" d="M134.69,93.34c-.41,.41-.75,.03-1.06-.14-2.05-1.12-4.16-2.11-6.4-2.76-1.07-.31-.91-.81-.72-1.6,.23-.94,.62-1.15,1.54-.81,2.25,.83,4.47,1.72,6.57,2.88,.99,.54,1.01,1.77,.07,2.42Z"/><path class="n" d="M68.15,134.91c-.39-.85-1.23-1.49,.1-2.21,1.09-.59,1.53-.41,2.11,.64,.96,1.73,2.12,3.37,3.64,4.67,.92,.79,.62,1.34-.05,2.09-.83,.92-1.2,.18-1.71-.3-1.59-1.51-2.83-3.31-4.09-4.9Z"/><path class="o" d="M99.66,143.15c.74,1,.43,1.51-.55,1.84-2.26,.76-4.53,1.44-6.92,1.66-.74,.07-1.31,.16-1.3-.88,0-.82-.2-1.54,1.06-1.62,2.12-.13,4.16-.7,6.14-1.49,.7-.28,1.49-.65,1.58,.5Z"/><path class="j" d="M67,128.38c-.82,.39-1.41,.5-1.74-.68-.66-2.39-1-4.78-.76-7.26,.08-.81,.26-1.26,1.19-1,.65,.19,1.5-.03,1.32,1.2-.33,2.2,.01,4.37,.71,6.46,.27,.8-.03,1.11-.72,1.29Z"/><path class="h" d="M495.34,210.69c-1.16,.56-2.06,.96-2.93,1.43-.81,.44-1.33,.6-1.78-.52-.38-.93-.43-1.38,.63-1.73,.93-.31,1.8-.8,2.67-1.27,.7-.37,1.28-.7,1.66,.4,.27,.79,.77,1.53-.25,1.7Z"/></svg>