<?xml version="1.0" encoding="UTF-8"?><svg id="a" xmlns="http://www.w3.org/2000/svg" viewBox="0 0 523.34 506.7"><defs><style>.b{fill:#2c2627;}.c{fill:#2b2526;}.d{fill:#292325;}.e{fill:#332c2e;}.f{fill:#2f292a;}.g{fill:#2c2628;}.h{fill:#2e2829;}.i{fill:#30292b;}.j{fill:#231d1f;}.k{fill:#292324;}.l{fill:#282223;}.m{fill:#2a2425;}.n{fill:#2a2426;}.o{fill:#272123;}.p{fill:#282224;}.q{fill:#282324;}.r{fill:#272122;}</style></defs><path class="j" d="M271.32,0c-5.53,10.57-10.9,20.83-16.55,31.64,2.36,0,4.38-.04,6.39,0,4.49,.1,8.98,.16,13.47,.4,1.68,.09,2.8-.43,3.81-1.72,1.12-1.44,2.66-2.6,3.58-4.15,2.89-4.81,7-5.08,11.85-3.46-2.21,3.84-4.44,7.71-6.7,11.65,1.33,.67,2.7,.32,3.98,.54,.8,.14,1.91,.14,1.86,1.21-.04,.92-1.04,1.21-1.89,1.29-1.31,.13-2.62,.18-4.15,.28,1.59,4.31,3.16,8.54,4.86,13.15-2.79-.62-5.18-1.19-7.58-1.68-.99-.2-1.56-.75-2.01-1.63-1.16-2.29-2.44-4.53-3.6-6.82-.45-.89-.92-1.4-2.04-1.42-6.74-.12-13.47-.29-20.2-.52-2.04-.07-1.38,.87-.98,1.95,3.67,9.69,7.28,19.41,11.01,29.08,.74,1.91,.69,2.46-1.65,2.75-2.83,.35-4.32-.67-5.91-2.78-7.61-10.09-15.4-20.04-23.07-30.08-.92-1.2-1.82-1.83-3.43-1.95-5.55-.43-11.13-.66-16.61-1.74-1.87-.37-4.44-.74-4.45-2.81-.01-2.07,2.65-2.18,4.37-2.46,5.44-.88,10.94-.88,16.43-.8,2.15,.03,3.68-.6,5.17-2.22,7.2-7.84,14.8-15.34,21.71-23.43,3.46-4.05,7.54-4,12.35-4.27Z"/><path class="r" d="M501.41,201.57c-.52,2.94-1.08,5.88-1.55,8.83-.17,1.06-.5,1.43-1.64,1.04-.92-.31-1.96-.45-1.38-1.71,2.61-5.66-1.4-8.22-5-11.04-.62-.49-2.02-.76-1.44-1.94,.53-1.07,1.23-2.59,2.86-.9,.8,.83,1.77,1.51,2.67,2.25,1,.81,1.68,1.88,3.46,1.19,1.69-.65,2.31,.61,2.01,2.29Z"/><path class="o" d="M169.82,420.7c-.3,.4-.72,.92-1.09,1.46-1.34,1.98-2.93,3.82-3.39,6.28-.24,1.31-1.1,1.6-2.17,1.09-2.58-1.24-5.37-1.66-8.13-2.15-1.38-.25-1.45-.95-1.25-2.09,.23-1.29,1.01-1.47,1.96-1.02,5.16,2.45,8.6,.75,10.77-4.3,.8-1.86,1.89-1.35,2.95-.21,.19,.21,.6,.35,.36,.93Z"/><path class="k" d="M426.77,232.97c.23,.4,.39,.79,.65,1.11,2.02,2.47,4.38,4.55,7.29,5.9,1.23,.57,.95,1.18,.54,2.1-.48,1.08-.96,1.26-2.05,.68-3.2-1.71-5.93-3.94-8.21-6.75-.32-.4-1.03-.82-.33-1.44,.55-.49,1.17-.9,2.11-1.6Z"/><path class="e" d="M501.72,187.25c0,1.41-.06,2.83,.02,4.23,.06,1.19-.16,1.82-1.59,1.81-1.39,0-1.63-.59-1.67-1.79-.09-3.07-.22-6.14-.48-9.2-.11-1.32,.7-1.27,1.52-1.4,.9-.13,1.66-.13,1.71,1.12,.06,1.74,.2,3.48,.31,5.23h.19Z"/><path class="q" d="M433.94,185.01c-.02,.79-.6,.93-.98,1.17-2.6,1.67-4.91,3.68-6.63,6.26-.84,1.26-1.49,.72-2.41,.2-1.29-.74-.65-1.39-.09-2.13,2.06-2.73,4.48-5.08,7.41-6.88,.46-.28,.95-1.2,1.64-.39,.47,.55,.76,1.25,1.06,1.77Z"/><path class="p" d="M448.02,178.83c.74,0,1.49,.02,2.23,0,.94-.03,1.66,.08,1.48,1.32-.13,.89,.05,1.85-1.4,1.78-3.24-.17-6.46,.15-9.59,.97-1.55,.41-1.34-.76-1.67-1.47-.52-1.12,.13-1.42,1.09-1.62,2.59-.56,5.2-1,7.86-.98Z"/><path class="h" d="M451.08,247.66c-3.14-.32-6.15-.83-9.14-1.54-1.11-.26-1.48-.78-1.06-1.92,.35-.93,.5-1.62,1.85-1.19,2.77,.88,5.65,1.25,8.55,1.46,1.26,.09,2.19,.15,2.05,1.92-.16,1.91-1.41,1.13-2.25,1.27Z"/><path class="m" d="M417.49,217.97c-.27-1.01,.29-1.29,1.18-1.32,.75-.03,1.69-.62,1.9,.75,.53,3.35,1.3,6.64,2.71,9.76,.56,1.23-.67,1.23-1.29,1.63-.79,.51-1.26,.42-1.67-.55-1.39-3.3-2.25-6.73-2.84-10.27Z"/><path class="p" d="M488.17,233.81c-.62,.7-.88,1.01-1.16,1.29-2.41,2.41-5.09,4.46-7.99,6.25-.87,.54-1.47,.67-1.92-.42-.32-.76-1.23-1.44,.14-2.19,2.84-1.56,5.33-3.61,7.62-5.89,.4-.4,.75-.93,1.44-.37,.57,.46,1.19,.86,1.87,1.33Z"/><path class="f" d="M212.26,398.17c1.16,.53,3.75-1.29,3.41,2.08-.08,.81-.32,1.18-1.18,1.19-3.15,.06-6.3-.05-9.43,.45-1.54,.25-1.09-1.13-1.33-1.86-.34-1.02,.38-1.29,1.22-1.35,2.4-.17,4.79-.34,7.31-.51Z"/><path class="d" d="M519.21,235.09c.14,.73-.77,.59-1.32,.79-.66,.24-1.43,.79-1.81-.38-1.07-3.31-2.21-6.59-3.62-9.78-.5-1.13,.72-1.09,1.27-1.4,.48-.27,1.12-.88,1.59,.18,1.48,3.34,2.71,6.77,3.88,10.58Z"/><path class="d" d="M460.8,247.39c-1.11,.38-1.48-.12-1.48-1.2,0-.9-.35-1.82,1.14-1.92,3.16-.22,6.24-.93,9.19-2.04,1.58-.59,1.54,.58,1.94,1.39,.61,1.22-.26,1.35-1.09,1.63-3.15,1.07-6.38,1.8-9.71,2.14Z"/><path class="c" d="M418.24,427.38c-.97,.18-1.22-.45-1.25-1.16-.03-.73-.66-1.74,.65-2.03,3.31-.74,6.64-1.45,9.95-2.2,1.41-.32,1.09,.86,1.38,1.52,.32,.7,.37,1.27-.57,1.49-3.39,.79-6.77,1.59-10.16,2.38Z"/><path class="k" d="M466.91,404.03c-.56-.6-1.15-1.17-1.67-1.8-.51-.6,.16-.84,.45-1.15,2.22-2.36,4.49-4.67,6.64-7.1,.84-.95,1.37-.59,1.99,.07,.44,.47,1.56,.73,.65,1.7-2.45,2.6-4.91,5.19-7.37,7.78-.16,.17-.38,.28-.69,.5Z"/><path class="p" d="M497.64,218.05c-1.46,3.88-3.1,7.42-5.41,10.58-.56,.77-1.16-.17-1.68-.46-.56-.32-1.24-.66-.66-1.52,1.95-2.9,3.43-6.03,4.71-9.28,.39-.98,1.05-.41,1.65-.2,.58,.2,1.27,.26,1.39,.89Z"/><path class="d" d="M496.54,156.02c.14,1.22-.78,1.13-1.47,1.3-.71,.18-1.4,.53-1.72-.62-.9-3.27-1.84-6.53-2.83-9.78-.39-1.27,.71-1.09,1.25-1.37,.66-.34,1.43-.63,1.76,.49,.99,3.33,2,6.66,3,9.99Z"/><path class="l" d="M512.03,217.94c-.12,.9-1.03,.9-1.57,1.31-.51,.39-.95,.5-1.37-.24-1.71-3.01-3.62-5.9-5.75-8.64-.79-1.01,.36-1.23,.82-1.66,.42-.39,.9-1.17,1.58-.3,2.28,2.93,4.37,6,6.15,9.27,.04,.07,.08,.14,.15,.25Z"/><path class="m" d="M458.99,179.85c3.55,.8,6.81,1.73,10.01,2.86,1.07,.37,.97,.96,.61,1.71-.32,.67-.3,1.79-1.6,1.29-3.1-1.19-6.28-2.09-9.53-2.74-1.29-.26-1-.96-.8-1.82,.2-.88,.28-1.75,1.31-1.29Z"/><path class="b" d="M522.77,252.44c.17,1.03-.35,1.37-1.27,1.34-.73-.02-1.69,.61-1.91-.78-.53-3.36-1.1-6.71-1.66-10.06-.2-1.21,.74-1.02,1.41-1.22,.92-.28,1.59-.26,1.78,.91,.53,3.27,1.09,6.54,1.65,9.82Z"/><path class="g" d="M522.8,280.12c-.36,2.89-.76,5.77-1.06,8.66-.13,1.19-.62,1.57-1.79,1.35-1.01-.19-1.65-.34-1.4-1.71,.51-2.86,.78-5.77,1.13-8.66,.13-1.05-.11-2.16,1.71-1.92,1.65,.22,1.54,1.13,1.42,2.26Z"/><path class="d" d="M400.33,429.42c-.72,.13-1.46,.04-1.44-1.35,.02-1.11,.01-1.86,1.49-1.93,3.07-.13,6.15-.37,9.2-.74,1.51-.18,1.29,.82,1.54,1.64,.36,1.22-.31,1.41-1.28,1.5-3.07,.26-6.13,.56-9.51,.88Z"/><path class="n" d="M320.11,421.28c-3.4-.71-6.55-1.42-9.72-1.99-1.47-.26-.98-1.1-.9-1.99,.1-1.19,.72-1.31,1.69-1.1,3.07,.66,6.15,1.33,9.24,1.89,1.24,.23,1.18,.95,.96,1.8-.19,.74-.17,1.82-1.26,1.39Z"/><path class="p" d="M446.37,417.5c.04,.83-.49,.95-.94,1.14-2.97,1.26-5.95,2.48-8.91,3.78-1.14,.5-1.59,.09-1.96-.99-.38-1.09-.22-1.57,.95-2,2.87-1.06,5.71-2.22,8.47-3.54,2.16-1.03,1.64,1.15,2.39,1.61Z"/><path class="p" d="M377.35,54.1c-.48,1.05-.36,2.6-2.37,1.8-2.77-1.1-5.62-2-8.49-2.82-1.2-.34-1.38-.82-1.04-1.92,.33-1.09,.77-1.52,1.94-1.12,2.98,1.03,5.98,1.97,8.97,2.97,.53,.18,1.2,.28,.99,1.09Z"/><path class="c" d="M251.02,404.74c-.08,1.17-.33,1.84-1.83,1.49-2.91-.68-5.86-1.22-8.82-1.62-1.51-.2-1.39-.97-1.29-2.05,.13-1.44,.95-1.22,1.92-1.03,2.93,.57,5.87,1.11,8.82,1.59,1.05,.17,1.5,.59,1.18,1.62Z"/><path class="k" d="M410.95,67.42c.06,1.43-1.2,2.32-2.5,1.75-2.71-1.2-5.39-2.5-8.13-3.61-1.19-.48-1.5-.94-.91-2.15,.5-1.03,.95-1.34,2.04-.81,2.75,1.31,5.55,2.52,8.33,3.78,.5,.22,1.15,.3,1.17,1.05Z"/><path class="l" d="M474.74,113.22c.39,.42,.76,.75,1.05,1.14,1.85,2.46,3.66,4.94,5.53,7.39,.67,.87,.82,1.44-.28,2.17-1.05,.7-1.56,.7-2.32-.41-1.74-2.53-3.67-4.94-5.5-7.41-.3-.41-1-.79-.27-1.4,.56-.47,1.14-.93,1.81-1.47Z"/><path class="p" d="M484.86,128.5c.86-.14,.97,.46,1.17,.86,1.5,2.94,2.94,5.92,4.47,8.84,.59,1.13,.04,1.42-.86,1.76-.78,.29-1.4,.82-1.97-.4-1.4-2.99-2.96-5.9-4.42-8.86-.94-1.91,1.39-1.31,1.6-2.2Z"/><path class="n" d="M258.24,404.84c3.05,.62,6.12,1.27,9.2,1.87,1.14,.22,1.42,.72,1.15,1.88-.25,1.11-.52,1.57-1.77,1.27-2.97-.71-5.97-1.31-8.98-1.87-1.2-.22-1.53-.82-1.15-1.89,.25-.71,.19-1.85,1.55-1.26Z"/><path class="p" d="M476.26,185.68c.95,.45,1.94,.87,2.89,1.37,2.04,1.08,4.07,2.19,6.1,3.3,.88,.48,1.68,.82,.82,2.18-.82,1.3-1.41,1.09-2.5,.47-2.58-1.48-5.22-2.85-7.88-4.17-.8-.4-1.32-.75-.77-1.62,.35-.56,.26-1.56,1.35-1.53Z"/><path class="d" d="M500.22,173.8c.25,1.19-.71,1.13-1.37,1.28-.69,.16-1.53,.5-1.74-.65-.63-3.4-1.29-6.8-1.86-10.22-.22-1.33,1.07-.96,1.72-1.24,.73-.31,1.21-.01,1.36,.87,.6,3.33,1.26,6.64,1.9,9.96Z"/><path class="l" d="M452.28,414.95c-.9-.12-.91-1.04-1.35-1.58-.45-.55-.32-.96,.31-1.38,2.82-1.88,5.6-3.81,8.38-5.75,1.18-.82,1.35,.39,1.87,.87,.53,.48,.87,.97,.06,1.59-2.82,2.17-5.74,4.2-8.8,6.01-.14,.08-.29,.16-.47,.25Z"/><path class="c" d="M513.77,313.25c1.19,.4,2.66,.35,1.94,2.33-1.05,2.86-1.99,5.76-2.82,8.69-.36,1.27-.88,1.24-1.93,.91-1.11-.35-1.45-.83-1.06-1.96,1.01-2.96,1.95-5.95,2.89-8.93,.18-.58,.29-1.14,1-1.03Z"/><path class="c" d="M293.03,412.33c3.47,.77,6.62,1.51,9.78,2.16,.94,.19,1.35,.53,.97,1.49-.3,.75-.08,1.93-1.6,1.58-3.15-.74-6.31-1.4-9.48-2.05-.94-.19-1.34-.61-.9-1.54,.32-.68-.09-2.12,1.22-1.64Z"/><path class="o" d="M372.47,429.03c-2.77-.28-5.56-.59-8.36-.82-1.12-.09-1.61-.37-1.36-1.66,.2-1.07,.4-1.62,1.66-1.47,2.79,.34,5.6,.55,8.4,.82,1.08,.11,2.28-.21,2.16,1.74-.13,2.11-1.49,1.2-2.48,1.4Z"/><path class="k" d="M323.28,41.89c-3.11-.62-6.17-1.3-9.25-1.8-1.4-.23-1.14-.97-1.07-1.92,.09-1.15,.63-1.38,1.62-1.18,3.07,.63,6.13,1.29,9.21,1.82,1.1,.19,1.36,.62,1.15,1.64-.21,.95-.37,1.86-1.66,1.44Z"/><path class="d" d="M14.01,489.17c-.84-.28-1.32-.99-1.87-1.58-.52-.56,.09-.87,.39-1.18,2.34-2.33,4.72-4.63,7.05-6.97,.89-.89,1.31-.11,1.76,.41,.4,.48,1.45,.82,.5,1.75-2.42,2.37-4.83,4.76-7.24,7.13-.17,.17-.39,.3-.58,.45Z"/><path class="n" d="M360.12,48.38c-.35,1.4-.29,2.84-2.43,2.07-2.72-.98-5.55-1.68-8.36-2.38-1.08-.27-1.61-.58-1.26-1.81,.32-1.15,.78-1.65,2.06-1.25,2.93,.9,5.9,1.67,8.84,2.52,.51,.15,1.2,.19,1.14,.86Z"/><path class="d" d="M383.56,55.56c.85,.31,1.63,.58,2.4,.88,2.31,.88,4.62,1.75,6.92,2.65,.88,.35,1.87,.47,1.2,2.02-.61,1.41-1.19,1.4-2.4,.89-2.74-1.13-5.53-2.13-8.3-3.17-.78-.29-1.38-.67-.89-1.6,.32-.59,.17-1.54,1.08-1.68Z"/><path class="o" d="M417.27,208.84c.32-3.82,1.04-6.87,2.06-9.88,.34-1.01,.71-1.35,1.78-.84,.89,.42,1.69,.65,1.18,1.92-1.09,2.72-1.59,5.58-1.9,8.48-.11,1.03,.21,2.15-1.62,2.04-1.93-.12-1.58-1.21-1.51-1.72Z"/><path class="c" d="M520.32,297.09c-.83,3.56-1.57,6.69-2.29,9.82-.23,.98-.61,1.39-1.72,.95-.87-.35-1.74-.32-1.37-1.73,.8-3.03,1.47-6.09,2.12-9.16,.21-1.01,.59-1.48,1.66-1.14,.83,.27,1.95,.25,1.59,1.25Z"/><path class="l" d="M479.04,390.08c-.57-.42-1.2-.82-1.77-1.3-.73-.61,.02-1.03,.29-1.44,1.67-2.57,3.45-5.08,5.03-7.7,.74-1.24,1.33-1.02,2.34-.42,1.15,.68,.9,1.29,.29,2.17-1.68,2.46-3.29,4.98-4.95,7.46-.31,.46-.51,1.07-1.23,1.24Z"/><path class="m" d="M275.63,408.53c3.41,.74,6.56,1.45,9.72,2.08,1.32,.26,.92,1.01,.76,1.85-.17,.91-.27,1.54-1.53,1.23-3.13-.78-6.29-1.44-9.45-2.07-1.03-.21-1.24-.72-.89-1.56,.31-.72,.07-2.15,1.39-1.53Z"/><path class="p" d="M339.03,422.85c.13,1.31-.33,1.95-1.83,1.65-2.92-.59-5.85-1.12-8.79-1.58-1.29-.2-1.57-.81-1.34-2.02,.24-1.2,.78-1.39,1.91-1.15,2.99,.64,6.01,1.15,9.03,1.7,.79,.14,1.6,.22,1.03,1.41Z"/><path class="n" d="M129.32,422.57c.68-.16,1,.37,1.08,1.41,.07,1,.15,1.75-1.21,1.88-3.12,.29-6.23,.66-9.34,1.08-1.39,.19-1.07-.84-1.34-1.54-.41-1.07,0-1.55,1.03-1.67,3.11-.37,6.23-.74,9.77-1.16Z"/><path class="p" d="M356.9,425.56c.11,1.33-.24,1.87-1.69,1.62-3.02-.52-6.07-.86-9.12-1.23-1.2-.15-1.42-.69-1.22-1.84,.19-1.1,.39-1.58,1.7-1.35,3.02,.55,6.06,.95,9.11,1.3,1.09,.13,1.54,.49,1.22,1.5Z"/><path class="c" d="M231.71,403.03c-3.1-.39-6.13-.81-9.17-1.15-1.44-.16-1.05-1.08-1.06-1.97-.01-1.19,.57-1.38,1.56-1.23,3.02,.46,6.04,.92,9.07,1.33,.91,.12,1.69,.24,1.31,1.46-.28,.89-.11,2.27-1.71,1.55Z"/><path class="n" d="M340.7,45.82c-2.94-.69-6.07-1.47-9.22-2.15-1.21-.26-1.11-.97-.88-1.83,.22-.81,.35-1.6,1.6-1.27,3.12,.82,6.24,1.61,9.4,2.27,1.27,.27,1.05,.9,.88,1.78-.18,.94-.43,1.63-1.78,1.2Z"/><path class="p" d="M507.95,330.31c1.39-.07,2.33,1.16,1.82,2.47-1.12,2.84-2.33,5.65-3.44,8.49-.36,.94-.77,1.38-1.78,.83-.76-.42-1.77-.54-1.19-1.9,1.27-2.96,2.42-5.96,3.66-8.93,.17-.4,.22-1.04,.93-.95Z"/><path class="k" d="M462.62,99.83c2.29,2.45,4.69,5.1,7.19,7.65,.83,.85,.84,1.36-.06,2.14-.8,.68-1.31,1.06-2.21,.07-1.79-1.96-3.6-3.95-5.64-5.64-1.94-1.61-1.98-2.77,.73-4.22Z"/><path class="p" d="M432.81,78.5c.36,.21,.72,.4,1.07,.62,2.59,1.64,5.16,3.31,7.78,4.91,.94,.58,1.29,1.04,.49,2.09-.71,.92-1.11,1.35-2.29,.53-2.51-1.76-5.16-3.3-7.75-4.95-.54-.34-1.28-.67-.66-1.51,.42-.57,.53-1.39,1.36-1.68Z"/><path class="k" d="M417.01,69.84c.29,.15,.58,.3,.87,.45,2.77,1.46,5.52,2.97,8.33,4.37,.99,.49,1.17,1,.54,1.86-.49,.67-.63,1.72-1.98,.94-2.78-1.61-5.67-3.05-8.52-4.54-.54-.28-1.16-.53-.7-1.26,.4-.64,.4-1.65,1.47-1.82Z"/><path class="p" d="M503.19,348.37c-.13,.26-.25,.48-.36,.71-1.4,2.9-2.83,5.78-4.19,8.7-.54,1.15-1.13,1.01-2.12,.53-1.1-.53-1.2-1.01-.66-2.05,1.41-2.71,2.67-5.49,4.03-8.22,.25-.51,.38-1.45,1.35-.94,.69,.36,1.64,.38,1.94,1.28Z"/><path class="k" d="M182.31,433.85c.08,1.22-1.43,2.23-2.59,1.73-2.66-1.16-5.29-2.4-7.99-3.44-1.21-.47-1.2-1-.85-2.05,.39-1.17,.94-1.37,2.01-.89,2.79,1.26,5.61,2.48,8.42,3.71,.45,.2,.97,.32,1.01,.95Z"/><path class="b" d="M111.54,425.17c1.27-.25,1.06,.77,1.26,1.41,.22,.72,.59,1.45-.55,1.75-3.2,.85-6.41,1.7-9.61,2.58-1.17,.32-1.2-.6-1.39-1.26-.17-.62-.78-1.41,.47-1.74,3.28-.88,6.54-1.82,9.82-2.73Z"/><path class="p" d="M488.66,374.61c-.59-.75-2.71-.51-1.45-2.54,1.61-2.61,3.11-5.29,4.54-8,.6-1.14,1.13-1.07,2.12-.54,1.02,.55,1.29,.98,.63,2.07-1.59,2.62-3.05,5.32-4.58,7.98-.27,.46-.4,1.14-1.26,1.03Z"/><path class="d" d="M85.63,437.2c-.97-.06-.84-1.15-1.26-1.76-.46-.67,.02-1.06,.62-1.3,3.08-1.23,6.18-2.42,9.23-3.71,.94-.4,1.29,.05,1.38,.76,.08,.64,1.18,1.45,.09,1.93-3.27,1.42-6.6,2.69-10.06,4.09Z"/><path class="p" d="M79.78,439.43c.1,.57-.33,.74-.67,.93-2.85,1.53-5.72,3-8.54,4.58-1.16,.65-1.39-.19-1.85-.86-.55-.82-.68-1.42,.38-1.96,2.73-1.4,5.41-2.88,8.14-4.28,1.29-.66,2.58,.2,2.54,1.6Z"/><path class="m" d="M155.73,451.54c1.23-.06,1.9,.15,1.71,1.8-.33,2.78-.35,5.61-.33,8.42,0,1.35-.48,1.67-1.72,1.71-1.31,.05-1.55-.56-1.5-1.64,.13-2.98,.24-5.95,.36-8.93,.04-.94,.27-1.67,1.49-1.36Z"/><path class="l" d="M49.58,458.01c-.08,.65-.58,.82-.95,1.11-2.43,1.86-4.93,3.63-7.28,5.59-1.11,.92-1.47,.3-2.09-.44-.6-.73-.96-1.24,.04-1.97,2.54-1.85,5-3.8,7.51-5.68,.41-.31,.87-.98,1.47-.34,.5,.54,.89,1.18,1.3,1.74Z"/><path class="o" d="M520.24,265.93c0-1.5,.04-2.99-.01-4.49-.04-1.03,0-1.7,1.39-1.72,1.32-.02,1.74,.38,1.71,1.67-.06,2.99-.04,5.98,.02,8.98,.02,1.19-.19,1.79-1.63,1.75-1.53-.05-1.5-.86-1.47-1.94,.05-1.41,.01-2.83,.01-4.24h-.02Z"/><path class="p" d="M9.86,493.59c-.32,.39-.57,.7-.83,.99-2.03,2.29-4.12,4.52-6.05,6.89-.84,1.03-1.33,.71-2.15,.08-.89-.68-1.17-1.16-.28-2.11,2.08-2.24,4.05-4.58,6.1-6.85,.33-.36,.59-1.21,1.31-.73,.67,.45,1.21,1.08,1.9,1.72Z"/><path class="l" d="M447.83,88.4c.45,.31,.78,.53,1.1,.77,2.49,1.93,4.94,3.89,7.47,5.77,.98,.73,.99,1.25,.18,2.14-.72,.79-1.16,1.18-2.17,.33-2.41-2.01-4.94-3.89-7.42-5.83-.45-.35-1.06-.65-.53-1.37,.43-.59,.87-1.16,1.38-1.82Z"/><path class="p" d="M35.96,469.52c-.39,.16-.84,.24-1.14,.5-2.4,2.04-4.83,4.04-7.11,6.2-1.11,1.05-1.47,.21-2.12-.41-.74-.7-.9-1.19,0-1.94,2.42-2.01,4.75-4.13,7.13-6.19,.4-.34,.82-1.01,1.45-.38,.52,.52,.93,1.15,1.78,2.22Z"/><path class="d" d="M188.16,406.41c-.98,.02-.91-.95-1.26-1.51-.32-.51-.58-1.03,.22-1.41,3.14-1.49,6.45-2.5,9.81-3.36,.94-.24,1.18,.4,1.18,1.12,0,.62,.95,1.49-.31,1.84-3.26,.91-6.5,1.86-9.64,3.32Z"/><path class="p" d="M188,436.46c.39,.22,.68,.38,.96,.56,2.58,1.64,5.12,3.34,7.74,4.92,1.09,.66,1,1.21,.35,2.14-.64,.9-1.1,1.18-2.15,.45-2.51-1.74-5.14-3.32-7.71-4.96-.47-.3-1.14-.51-.62-1.27,.44-.64,.59-1.54,1.44-1.84Z"/><path class="l" d="M62.55,446.04c.95,0,.99,.94,1.43,1.47,.45,.55,.38,1.02-.26,1.43-2.79,1.79-5.58,3.59-8.34,5.42-1,.67-1.31-.11-1.69-.72-.35-.55-1.26-1.07-.15-1.79,2.85-1.84,5.69-3.71,8.54-5.57,.14-.09,.29-.15,.48-.25Z"/><path class="n" d="M154.52,470.22c-.23-.98,.57-1.09,1.48-1.15,.88-.06,1.52-.12,1.66,1.14,.33,2.95,.85,5.88,1.79,8.7,.44,1.32-.28,1.51-1.22,1.83-.93,.32-1.49,.35-1.79-.82-.82-3.11-1.52-6.24-1.93-9.7Z"/><path class="n" d="M141.38,422.5c1.54,.14,3.51,.39,5.49,.48,1.14,.05,1.34,.53,1.27,1.55-.07,1.07-.28,1.67-1.58,1.56-3.04-.25-6.09-.42-9.14-.51-1.25-.03-1.22-.71-1.25-1.6-.03-.97,.12-1.58,1.31-1.5,1.15,.08,2.31,.02,3.9,.02Z"/><path class="m" d="M155.57,444.65c.78-3.46,1.69-6.54,2.76-9.58,.39-1.1,.99-1.07,1.89-.59,.7,.37,1.56,.33,1.1,1.65-1,2.88-1.86,5.82-2.59,8.78-.3,1.22-.89,1.21-1.76,.97-.76-.21-1.81-.24-1.4-1.23Z"/><path class="b" d="M213.64,459.88c1.11-.06,1.21,.51,1.4,.9,1.4,2.93,2.25,6.02,2.83,9.21,.21,1.16-.46,1.27-1.22,1.35-.76,.09-1.78,.52-1.93-.79-.36-2.99-1.29-5.79-2.53-8.51-.38-.84,.84-2.17,1.45-2.16Z"/><path class="p" d="M208.98,456.42c-.32-.31-.6-.5-.78-.76-1.74-2.36-3.95-4.24-6.28-5.95-1.19-.87-.8-1.45-.15-2.37,.8-1.14,1.38-.69,2.17-.05,2.32,1.87,4.63,3.75,6.46,6.14,.31,.4,1.1,.81,.53,1.44-.53,.6-1.27,1.03-1.94,1.55Z"/><path class="k" d="M167.12,494.85c-.13,.92-1.02,1.21-1.59,1.74-.69,.65-1.01-.1-1.33-.5-1.99-2.55-3.54-5.36-4.93-8.27-.45-.94-.09-1.43,.75-1.64,.67-.17,1.49-1.16,2.05,.16,1.24,2.89,2.82,5.59,4.75,8.08,.1,.13,.19,.27,.3,.43Z"/><path class="m" d="M203.44,501.81c-.71-.36-.9-1.11-1.31-1.69-.47-.65-.09-1.01,.46-1.38,2.43-1.61,4.57-3.57,6.3-5.91,.83-1.12,1.35-.37,1.98,.07,.56,.4,1.43,.69,.66,1.66-2.12,2.67-4.54,5.02-7.4,6.9-.2,.13-.44,.22-.68,.34Z"/><path class="r" d="M386.75,426.55c1.49,0,2.97,.06,4.46-.02,1.15-.06,1.78,.09,1.79,1.54,.01,1.45-.61,1.59-1.77,1.56-2.97-.08-5.94-.12-8.91-.09-1.18,.02-1.61-.33-1.52-1.56,.08-1.04,.16-1.71,1.5-1.59,1.47,.13,2.97,.03,4.45,.03v.12Z"/><path class="p" d="M182.52,408.79c.21,.7-.42,.84-.79,1.08-2.45,1.58-4.81,3.31-6.85,5.39-.97,.99-1.43,.51-2.18-.17-.9-.82-.89-1.36,.04-2.17,2.25-1.98,4.56-3.88,7.09-5.5,1.19-.76,2.55-.05,2.7,1.37Z"/><path class="o" d="M188.45,506.69c-1.17-.08-2.37,.46-2.36-1.42,0-1.54,.46-1.93,1.96-1.94,2.48-.02,4.97-.32,7.31-1.21,1.42-.54,1.84,.12,2.26,1.3,.52,1.46-.52,1.43-1.35,1.7-2.61,.85-5.33,1.13-7.82,1.57Z"/><path class="p" d="M216.31,477c1.54-.22,1.91,.43,1.69,1.7-.52,2.94-1.13,5.84-2.31,8.6-.37,.85-.6,1.53-1.75,.9-.9-.49-1.82-.7-1.15-2.13,1.12-2.41,1.72-4.99,2.03-7.63,.11-.94,.18-2.02,1.49-1.43Z"/><path class="k" d="M180.58,504.04c-.06,1.13-.3,1.84-1.79,1.5-3.02-.7-5.85-1.76-8.43-3.5-.84-.57-1.24-1.04-.39-1.9,.59-.6,.87-1.67,2.1-.73,2.22,1.68,4.8,2.6,7.52,3.08,1.04,.19,1.2,.7,.98,1.56Z"/><path class="i" d="M301.67,34.87c1.59,.24,2.8,.47,4.03,.59,1.14,.11,1.79,.32,1.47,1.8-.27,1.22-.53,1.73-1.88,1.34-1.18-.33-2.43-.44-3.65-.58-.99-.11-1.81-.18-1.43-1.58,.27-1.01,.28-2.13,1.46-1.58Z"/></svg>