<?xml version="1.0" encoding="utf-8"?>
<!-- Generator: Adobe Illustrator 27.5.0, SVG Export Plug-In . SVG Version: 6.00 Build 0)  -->
<svg version="1.1" xmlns="http://www.w3.org/2000/svg" xmlns:xlink="http://www.w3.org/1999/xlink" x="0px" y="0px"
	 viewBox="0 0 500 500" style="enable-background:new 0 0 500 500;" xml:space="preserve">
<g id="BACKGROUND">
	<rect x="0" y="-0.051" style="fill:#FFFFFF;" width="500.003" height="500.027"/>
</g>
<g id="OBJECTS">
	<g>
		<text transform="matrix(1 0 0 1 134.9268 62.4185)" style="fill:#1D1D1B; font-family:'AbhayaLibre-Bold'; font-size:30.4641px;">Ornament Divider</text>
		<text transform="matrix(1 0 0 1 207.2383 85.4976)" style="fill:#1D1D1B; font-family:'AbhayaLibre-Bold'; font-size:20.3125px;">Collection</text>
	</g>
	<g>
		<g>
			<g>
				<path style="fill:#1D1D1B;" d="M345.277,311.439c5.478-0.662,10.969-1.939,15.826-4.585c2.421-1.314,4.65-2.984,6.5-5.013
					c1.836-2.037,3.324-4.395,4.258-6.964c0.928-2.558,1.34-5.337,0.919-8.023c-0.37-2.69-1.541-5.24-3.186-7.394
					c-3.296-4.377-8.584-6.909-13.967-7.557c-2.687-0.308-5.512-0.359-7.952,0.682c-1.205,0.518-2.255,1.343-2.945,2.437
					c-0.687,1.094-1.052,2.39-1.147,3.716c-0.11,1.327,0.01,2.681,0.249,4.011c0.25,1.333,0.58,2.658,1.132,3.862
					c0.549,1.204,1.333,2.284,2.396,3.009c1.049,0.727,2.355,1.104,3.557,0.839c1.201-0.25,2.231-1.139,2.831-2.253
					c0.624-1.117,0.809-2.423,0.531-3.68c-0.255-1.259-0.918-2.43-1.776-3.418c-0.853-0.995-1.96-1.771-3.115-2.445
					c-2.33-1.309-5.026-1.983-7.687-1.842c-2.648,0.162-5.305,1.063-7.396,2.678c-2.109,1.587-3.531,4.037-3.734,6.656
					c-0.099,1.287,0.099,2.637,0.658,3.758c0.571,1.091,1.608,2.049,2.752,2.278c1.143,0.262,2.255-0.543,2.515-1.725
					c0.3-1.185,0.074-2.538-0.476-3.706c-1.08-2.409-3.093-4.397-5.505-5.498c-4.811-2.365-11.228-0.256-13.847,4.364
					c-0.621,1.116-0.921,2.49-0.411,3.561c0.483,1.078,1.808,1.84,2.806,1.331c0.5-0.231,0.889-0.729,1.092-1.288
					c0.208-0.559,0.208-1.186,0.071-1.803c-0.29-1.235-1.048-2.403-1.932-3.375c-1.794-1.966-4.404-3.153-7.064-3.339
					c-1.332-0.083-2.679,0.115-3.924,0.568c-1.226,0.47-2.375,1.271-2.939,2.416c-0.585,1.096-0.314,2.598,0.585,3.437
					c0.44,0.421,1.054,0.61,1.645,0.502c0.594-0.1,1.144-0.478,1.519-0.974c0.782-0.997,0.678-2.484,0.073-3.621
					c-0.615-1.161-1.675-2.061-2.896-2.6c-2.485-1.088-5.341-0.987-8.035-0.553c-2.722,0.42-5.412,1.124-8.173,1.468
					c-2.742,0.342-5.62,0.321-8.233-0.696c-2.562-1.014-4.85-3.097-5.515-5.828c0.709,2.719,3.016,4.744,5.562,5.706
					c2.597,0.964,5.438,0.941,8.152,0.559c2.731-0.384,5.402-1.128,8.144-1.596c2.712-0.477,5.646-0.652,8.308,0.461
					c1.314,0.555,2.489,1.529,3.186,2.817c0.681,1.257,0.86,2.981-0.092,4.243c-0.452,0.605-1.112,1.08-1.889,1.223
					c-0.771,0.155-1.623-0.106-2.186-0.641c-1.135-1.052-1.454-2.826-0.761-4.202c0.668-1.371,1.962-2.259,3.287-2.784
					c1.35-0.507,2.794-0.729,4.226-0.653c2.855,0.176,5.652,1.414,7.621,3.526c0.97,1.059,1.799,2.275,2.166,3.742
					c0.385,1.433-0.075,3.309-1.61,4.086c-0.757,0.387-1.696,0.304-2.397-0.068c-0.717-0.366-1.275-0.963-1.619-1.676
					c-0.694-1.496-0.263-3.132,0.422-4.394c2.88-5.092,9.765-7.348,15.062-4.806c2.624,1.192,4.811,3.331,6.007,5.972
					c0.614,1.322,0.915,2.857,0.542,4.372c-0.184,0.75-0.63,1.508-1.318,1.98c-0.674,0.477-1.566,0.658-2.36,0.489
					c-1.595-0.342-2.76-1.484-3.478-2.804c-0.68-1.361-0.884-2.853-0.784-4.315c0.212-2.928,1.811-5.675,4.122-7.418
					c2.307-1.763,5.132-2.704,7.994-2.876c2.874-0.143,5.754,0.589,8.242,1.996c2.452,1.364,4.753,3.588,5.363,6.549
					c0.321,1.45,0.096,3.055-0.645,4.354c-0.71,1.307-1.954,2.406-3.489,2.727c-1.529,0.327-3.096-0.158-4.303-1
					c-1.234-0.846-2.123-2.097-2.712-3.405c-0.597-1.319-0.934-2.704-1.19-4.088c-0.246-1.391-0.37-2.819-0.249-4.253
					c0.108-1.428,0.507-2.879,1.3-4.13c0.795-1.253,2.018-2.21,3.359-2.765c2.717-1.12,5.646-1.009,8.408-0.675
					c2.784,0.377,5.52,1.2,8.007,2.528c2.486,1.322,4.703,3.174,6.39,5.434c1.686,2.25,2.881,4.91,3.243,7.715
					c0.409,2.8-0.036,5.673-1.026,8.288c-1.001,2.623-2.558,5.004-4.458,7.046c-1.915,2.035-4.202,3.692-6.663,4.978
					C356.285,309.674,350.764,310.862,345.277,311.439z"/>
			</g>
			<polygon style="fill:#1D1D1B;" points="348.609,304.845 331.897,310.295 349.699,315.563 			"/>
		</g>
		<g>
			<g>
				<path style="fill:#1D1D1B;" d="M393.975,311.439c-5.487-0.577-11.008-1.765-15.948-4.356c-2.461-1.286-4.748-2.942-6.663-4.978
					c-1.9-2.042-3.457-4.423-4.458-7.046c-0.989-2.615-1.435-5.489-1.026-8.288c0.362-2.805,1.556-5.466,3.243-7.715
					c1.687-2.26,3.904-4.112,6.39-5.434c2.487-1.328,5.223-2.151,8.007-2.528c2.762-0.334,5.691-0.446,8.408,0.675
					c1.341,0.555,2.565,1.512,3.359,2.765c0.793,1.251,1.192,2.702,1.3,4.13c0.122,1.434-0.003,2.861-0.249,4.253
					c-0.256,1.383-0.592,2.768-1.19,4.088c-0.589,1.307-1.478,2.558-2.712,3.405c-1.207,0.842-2.774,1.327-4.303,1
					c-1.535-0.32-2.779-1.419-3.489-2.727c-0.741-1.299-0.966-2.905-0.645-4.354c0.61-2.96,2.911-5.185,5.363-6.549
					c2.488-1.407,5.368-2.14,8.242-1.996c2.862,0.171,5.687,1.113,7.994,2.876c2.311,1.742,3.91,4.49,4.122,7.418
					c0.101,1.462-0.103,2.954-0.784,4.315c-0.718,1.321-1.883,2.462-3.478,2.804c-0.794,0.169-1.686-0.012-2.36-0.489
					c-0.688-0.472-1.134-1.23-1.318-1.98c-0.372-1.515-0.072-3.05,0.542-4.372c1.197-2.641,3.383-4.781,6.007-5.972
					c5.297-2.542,12.182-0.286,15.062,4.806c0.685,1.262,1.116,2.898,0.422,4.394c-0.343,0.713-0.902,1.31-1.619,1.676
					c-0.702,0.373-1.641,0.455-2.397,0.068c-1.534-0.777-1.995-2.653-1.61-4.086c0.367-1.467,1.196-2.683,2.166-3.742
					c1.969-2.113,4.766-3.35,7.621-3.526c1.432-0.076,2.876,0.146,4.226,0.653c1.325,0.525,2.619,1.413,3.287,2.784
					c0.693,1.376,0.374,3.15-0.761,4.202c-0.562,0.535-1.414,0.796-2.186,0.641c-0.777-0.143-1.437-0.618-1.889-1.223
					c-0.953-1.261-0.773-2.986-0.092-4.243c0.697-1.289,1.872-2.262,3.186-2.817c2.662-1.113,5.596-0.938,8.308-0.461
					c2.742,0.468,5.412,1.212,8.144,1.596c2.714,0.382,5.555,0.405,8.152-0.559c2.545-0.963,4.853-2.987,5.562-5.706
					c-0.665,2.731-2.953,4.814-5.515,5.828c-2.613,1.017-5.491,1.038-8.233,0.696c-2.76-0.345-5.45-1.048-8.173-1.468
					c-2.694-0.435-5.549-0.536-8.035,0.553c-1.221,0.539-2.282,1.439-2.896,2.6c-0.605,1.138-0.709,2.625,0.073,3.621
					c0.375,0.496,0.925,0.874,1.519,0.974c0.591,0.108,1.205-0.082,1.645-0.502c0.899-0.839,1.17-2.341,0.585-3.437
					c-0.564-1.145-1.713-1.946-2.939-2.416c-1.245-0.453-2.592-0.652-3.924-0.568c-2.659,0.186-5.269,1.374-7.064,3.339
					c-0.883,0.971-1.641,2.14-1.932,3.375c-0.137,0.617-0.137,1.243,0.071,1.803c0.203,0.559,0.592,1.056,1.092,1.288
					c0.998,0.508,2.323-0.253,2.806-1.331c0.51-1.071,0.21-2.446-0.411-3.561c-2.618-4.62-9.036-6.729-13.847-4.364
					c-2.411,1.101-4.424,3.089-5.505,5.498c-0.55,1.168-0.776,2.521-0.476,3.706c0.26,1.182,1.372,1.987,2.515,1.725
					c1.144-0.229,2.181-1.188,2.752-2.278c0.56-1.122,0.757-2.471,0.658-3.758c-0.203-2.618-1.625-5.068-3.734-6.656
					c-2.091-1.615-4.748-2.516-7.396-2.678c-2.66-0.141-5.356,0.532-7.687,1.842c-1.156,0.674-2.263,1.451-3.115,2.445
					c-0.858,0.988-1.521,2.159-1.776,3.418c-0.278,1.257-0.093,2.563,0.531,3.68c0.6,1.113,1.63,2.002,2.831,2.253
					c1.202,0.265,2.508-0.112,3.557-0.839c1.063-0.725,1.847-1.805,2.396-3.009c0.551-1.204,0.882-2.529,1.132-3.862
					c0.239-1.33,0.359-2.684,0.249-4.011c-0.096-1.326-0.46-2.622-1.147-3.716c-0.691-1.095-1.741-1.92-2.945-2.437
					c-2.44-1.042-5.265-0.99-7.952-0.682c-5.383,0.648-10.671,3.18-13.967,7.557c-1.644,2.154-2.815,4.704-3.186,7.394
					c-0.42,2.686-0.009,5.465,0.919,8.023c0.934,2.569,2.422,4.927,4.258,6.964c1.85,2.029,4.079,3.699,6.5,5.013
					C383.005,309.5,388.497,310.777,393.975,311.439z"/>
			</g>
			<polygon style="fill:#1D1D1B;" points="390.642,304.845 407.354,310.295 389.552,315.563 			"/>
		</g>
	</g>
	<g>
		<g>
			<path style="fill:#1D1D1B;" d="M268.497,385.514c-0.886,0.837-1.072,2.186-0.724,3.306c0.315,1.149,1.121,2.128,2.185,2.654
				c1.046,0.557,2.228,0.797,3.401,0.942c1.178,0.138,2.369,0.145,3.551,0.059c2.369-0.171,4.694-0.717,6.982-1.363
				c2.265-0.606,4.593-1.588,7.098-1.2c1.215,0.193,2.438,0.747,3.248,1.759c0.792,1.015,1.073,2.43,0.579,3.669
				c-0.248,0.605-0.721,1.163-1.362,1.428c-0.315,0.134-0.671,0.203-1.037,0.156c-0.367-0.049-0.728-0.244-0.963-0.538
				c-0.474-0.608-0.468-1.363-0.298-1.999c0.188-0.64,0.555-1.198,1.011-1.655c0.931-0.903,2.162-1.389,3.408-1.541
				c1.244-0.141,2.516,0.019,3.687,0.457c2.366,0.848,4.236,2.917,4.896,5.343c0.296,1.171,0.555,2.596-0.361,3.821
				c-0.462,0.601-1.373,0.848-2.071,0.6c-0.702-0.217-1.282-0.737-1.556-1.434c-0.508-1.393,0.125-2.82,1-3.741
				c0.894-0.958,1.958-1.504,2.699-2.353c1.592-1.937,4.268-2.965,6.794-2.637c2.563,0.337,4.779,2.119,5.839,4.424
				c0.516,1.162,0.797,2.451,0.586,3.772c-0.115,0.656-0.378,1.321-0.879,1.852c-0.505,0.518-1.182,0.85-1.93,0.878
				c-0.753,0.053-1.553-0.378-1.945-1.02c-0.407-0.643-0.485-1.354-0.473-2.003c0.059-1.326,0.459-2.473,0.901-3.635
				c0.938-2.283,2.494-4.355,4.582-5.752c2.087-1.397,4.668-2.032,7.174-1.715c1.253,0.164,2.475,0.581,3.563,1.254
				c1.076,0.686,1.992,1.603,2.672,2.673c1.374,2.109,1.801,4.945,0.699,7.324c-0.532,1.173-1.531,2.228-2.82,2.659
				c-0.635,0.219-1.337,0.295-2.02,0.164c-0.681-0.129-1.307-0.455-1.816-0.878c-1.021-0.854-1.662-2.008-2.078-3.181
				c-0.413-1.184-0.619-2.437-0.598-3.684c0.036-2.494,0.897-4.963,2.461-6.917c1.573-1.945,3.775-3.31,6.152-3.985
				c2.381-0.677,4.964-0.633,7.315,0.124c2.351,0.754,4.478,2.13,6.152,3.925c3.368,3.622,4.693,8.816,3.941,13.609
				c-0.765,4.825-3.556,9.192-7.39,12.123c-3.819,2.965-8.797,4.413-13.579,3.815c-1.193-0.149-2.371-0.427-3.493-0.855
				c-1.124-0.413-2.213-0.982-3.101-1.801c-0.878-0.805-1.552-1.941-1.523-3.164c0.002-0.601,0.151-1.202,0.434-1.73
				c0.279-0.515,0.721-1.019,1.316-1.127c-0.592,0.119-1.021,0.627-1.287,1.142c-0.271,0.528-0.406,1.123-0.398,1.714
				c-0.006,1.2,0.671,2.293,1.546,3.067c0.885,0.786,1.964,1.326,3.081,1.713c1.115,0.402,2.28,0.654,3.457,0.779
				c4.719,0.501,9.565-1.014,13.228-3.968c3.7-2.899,6.361-7.17,7.044-11.811c0.679-4.611-0.663-9.573-3.872-12.946
				c-3.163-3.375-8.164-5.068-12.616-3.724c-2.207,0.635-4.237,1.909-5.666,3.691c-1.418,1.781-2.204,4.057-2.228,6.335
				c-0.015,1.139,0.178,2.275,0.553,3.341c0.377,1.064,0.961,2.063,1.783,2.743c0.811,0.695,1.887,0.893,2.876,0.532
				c0.993-0.337,1.776-1.148,2.226-2.137c0.923-2.005,0.57-4.465-0.654-6.33c-0.603-0.943-1.415-1.747-2.353-2.341
				c-0.945-0.581-2.028-0.947-3.142-1.093c-2.231-0.292-4.579,0.273-6.458,1.525c-1.894,1.257-3.341,3.156-4.219,5.274
				c-0.412,1.053-0.794,2.208-0.836,3.274c-0.016,0.533,0.068,1.062,0.308,1.434c0.24,0.37,0.627,0.592,1.076,0.568
				c0.448-0.009,0.924-0.233,1.248-0.569c0.324-0.338,0.536-0.825,0.625-1.338c0.176-1.044-0.052-2.194-0.501-3.199
				c-0.917-2.022-2.882-3.601-5.083-3.89c-2.201-0.281-4.551,0.568-6.006,2.339c-0.852,0.946-1.966,1.531-2.697,2.334
				c-0.746,0.764-1.167,1.896-0.834,2.806c0.153,0.418,0.544,0.783,0.981,0.917c0.437,0.145,0.875,0.026,1.165-0.319
				c0.297-0.337,0.427-0.876,0.448-1.407c0.016-0.53-0.081-1.103-0.224-1.645c-0.576-2.191-2.233-4.072-4.371-4.863
				c-2.089-0.812-4.721-0.673-6.363,0.867c-0.389,0.381-0.698,0.85-0.853,1.356c-0.146,0.493-0.117,1.071,0.163,1.418
				c0.27,0.36,0.799,0.416,1.27,0.214c0.474-0.188,0.839-0.602,1.048-1.091c0.416-0.985,0.197-2.231-0.469-3.09
				c-0.683-0.878-1.773-1.394-2.893-1.595c-2.296-0.41-4.61,0.484-6.909,1.065c-2.311,0.607-4.668,1.116-7.067,1.246
				c-1.198,0.065-2.403,0.036-3.592-0.125c-1.183-0.168-2.38-0.432-3.439-1.021c-0.525-0.293-1.014-0.668-1.39-1.143
				c-0.37-0.477-0.638-1.028-0.795-1.608C267.377,387.695,267.595,386.333,268.497,385.514z"/>
		</g>
		<g>
			<path style="fill:#1D1D1B;" d="M351.446,383.462c-3.049-0.02-6.024,1.187-8.183,3.241c-2.195,2.012-3.608,4.828-3.912,7.747
				c-0.271,2.904,0.591,5.959,2.581,8.065c2.001,2.118,4.923,3.178,7.851,3.398c2.94,0.266,5.965-0.104,8.743-1.131
				c2.786-0.998,5.274-2.789,6.965-5.208c0.833-1.206,1.469-2.57,1.749-4.01c0.306-1.437,0.222-2.951-0.12-4.387
				c-0.328-1.444-1.039-2.805-2.068-3.882c-1.052-1.053-2.487-1.719-4.004-1.86c1.52,0.024,3.05,0.606,4.199,1.656
				c1.13,1.062,1.952,2.452,2.377,3.95c0.417,1.498,0.552,3.093,0.277,4.645c-0.252,1.557-0.882,3.028-1.73,4.346
				c-1.694,2.662-4.4,4.569-7.305,5.659c-2.915,1.109-6.069,1.535-9.181,1.283c-3.09-0.265-6.273-1.429-8.462-3.797
				c-2.171-2.369-3.106-5.7-2.685-8.818c0.428-3.118,2.017-6.027,4.378-8.044C345.277,384.31,348.399,383.2,351.446,383.462z"/>
		</g>
		<g>
			<path style="fill:#1D1D1B;" d="M470.754,385.514c0.902,0.819,1.12,2.181,0.787,3.324c-0.156,0.58-0.425,1.131-0.795,1.608
				c-0.376,0.475-0.865,0.85-1.39,1.143c-1.059,0.589-2.256,0.853-3.439,1.021c-1.19,0.161-2.395,0.19-3.592,0.125
				c-2.4-0.13-4.757-0.639-7.067-1.246c-2.299-0.581-4.613-1.475-6.909-1.065c-1.121,0.201-2.211,0.717-2.893,1.595
				c-0.666,0.859-0.884,2.105-0.469,3.09c0.21,0.489,0.575,0.903,1.048,1.091c0.471,0.202,1,0.146,1.27-0.214
				c0.28-0.347,0.309-0.926,0.163-1.418c-0.155-0.506-0.464-0.975-0.853-1.356c-1.642-1.539-4.273-1.678-6.363-0.867
				c-2.138,0.791-3.795,2.672-4.371,4.863c-0.143,0.542-0.24,1.115-0.224,1.645c0.021,0.531,0.151,1.071,0.448,1.407
				c0.29,0.344,0.728,0.464,1.165,0.319c0.436-0.134,0.828-0.499,0.981-0.917c0.334-0.91-0.087-2.042-0.834-2.806
				c-0.731-0.802-1.845-1.388-2.697-2.334c-1.454-1.771-3.804-2.62-6.005-2.339c-2.201,0.289-4.166,1.868-5.083,3.89
				c-0.449,1.005-0.677,2.155-0.501,3.199c0.089,0.513,0.301,1.001,0.625,1.338c0.323,0.335,0.799,0.559,1.248,0.569
				c0.449,0.024,0.835-0.198,1.076-0.568c0.24-0.372,0.324-0.901,0.308-1.434c-0.042-1.066-0.425-2.22-0.836-3.274
				c-0.878-2.118-2.325-4.017-4.219-5.274c-1.879-1.252-4.226-1.817-6.458-1.525c-1.113,0.146-2.196,0.511-3.142,1.093
				c-0.938,0.594-1.751,1.398-2.353,2.341c-1.223,1.865-1.576,4.325-0.654,6.33c0.45,0.99,1.233,1.8,2.226,2.137
				c0.988,0.361,2.065,0.163,2.876-0.532c0.822-0.68,1.406-1.679,1.783-2.743c0.375-1.066,0.568-2.202,0.553-3.341
				c-0.024-2.278-0.81-4.554-2.228-6.335c-1.429-1.782-3.459-3.056-5.666-3.691c-4.453-1.344-9.454,0.349-12.616,3.724
				c-3.209,3.373-4.552,8.336-3.872,12.946c0.683,4.641,3.344,8.912,7.044,11.811c3.663,2.954,8.509,4.469,13.228,3.968
				c1.176-0.125,2.342-0.378,3.457-0.779c1.116-0.387,2.196-0.927,3.081-1.713c0.874-0.774,1.552-1.867,1.546-3.067
				c0.008-0.591-0.127-1.186-0.398-1.714c-0.267-0.515-0.695-1.023-1.287-1.142c0.595,0.108,1.038,0.611,1.316,1.127
				c0.283,0.528,0.432,1.128,0.434,1.73c0.03,1.222-0.645,2.358-1.523,3.164c-0.889,0.819-1.978,1.387-3.101,1.801
				c-1.123,0.428-2.301,0.706-3.493,0.855c-4.782,0.597-9.76-0.851-13.579-3.815c-3.834-2.931-6.625-7.298-7.39-12.123
				c-0.753-4.793,0.573-9.987,3.941-13.609c1.674-1.796,3.801-3.171,6.152-3.925c2.351-0.757,4.934-0.801,7.315-0.124
				c2.377,0.676,4.579,2.04,6.152,3.985c1.564,1.953,2.424,4.423,2.461,6.917c0.021,1.247-0.185,2.5-0.598,3.684
				c-0.416,1.173-1.056,2.327-2.078,3.181c-0.509,0.423-1.135,0.749-1.816,0.878c-0.683,0.13-1.385,0.055-2.02-0.164
				c-1.289-0.431-2.289-1.485-2.82-2.659c-1.102-2.379-0.674-5.215,0.699-7.324c0.68-1.07,1.596-1.987,2.672-2.673
				c1.088-0.673,2.31-1.09,3.563-1.254c2.506-0.317,5.087,0.319,7.174,1.715c2.087,1.397,3.643,3.469,4.582,5.752
				c0.441,1.162,0.842,2.309,0.901,3.635c0.012,0.649-0.067,1.36-0.473,2.003c-0.392,0.642-1.191,1.072-1.945,1.02
				c-0.748-0.028-1.425-0.359-1.93-0.878c-0.502-0.531-0.764-1.196-0.879-1.852c-0.212-1.321,0.069-2.61,0.586-3.772
				c1.061-2.306,3.277-4.087,5.839-4.424c2.526-0.328,5.203,0.7,6.794,2.637c0.742,0.85,1.805,1.395,2.699,2.353
				c0.875,0.921,1.508,2.348,1,3.741c-0.275,0.697-0.855,1.217-1.556,1.434c-0.699,0.248-1.609,0.001-2.071-0.6
				c-0.916-1.225-0.657-2.65-0.361-3.821c0.661-2.426,2.531-4.495,4.896-5.343c1.171-0.438,2.443-0.599,3.687-0.457
				c1.246,0.152,2.476,0.638,3.408,1.541c0.456,0.458,0.823,1.015,1.011,1.655c0.17,0.636,0.176,1.39-0.298,1.999
				c-0.235,0.294-0.596,0.489-0.963,0.538c-0.367,0.047-0.723-0.022-1.037-0.156c-0.641-0.265-1.114-0.823-1.362-1.428
				c-0.494-1.238-0.213-2.653,0.579-3.669c0.81-1.011,2.033-1.566,3.248-1.759c2.505-0.387,4.833,0.594,7.098,1.2
				c2.288,0.646,4.613,1.191,6.982,1.363c1.182,0.086,2.373,0.079,3.551-0.059c1.173-0.145,2.356-0.384,3.401-0.942
				c1.063-0.526,1.87-1.505,2.185-2.654C471.826,387.7,471.64,386.351,470.754,385.514z"/>
		</g>
		<g>
			<path style="fill:#1D1D1B;" d="M387.805,383.462c3.046-0.262,6.169,0.848,8.528,2.853c2.361,2.018,3.951,4.926,4.378,8.044
				c0.421,3.117-0.514,6.449-2.685,8.818c-2.189,2.368-5.372,3.532-8.462,3.797c-3.113,0.252-6.266-0.174-9.181-1.283
				c-2.905-1.09-5.611-2.997-7.305-5.659c-0.848-1.318-1.479-2.79-1.73-4.346c-0.275-1.552-0.139-3.147,0.278-4.645
				c0.425-1.498,1.247-2.888,2.377-3.95c1.149-1.05,2.679-1.632,4.199-1.656c-1.517,0.141-2.952,0.807-4.004,1.86
				c-1.028,1.077-1.739,2.438-2.068,3.882c-0.342,1.436-0.425,2.951-0.12,4.387c0.28,1.441,0.916,2.804,1.749,4.01
				c1.691,2.419,4.179,4.21,6.965,5.208c2.777,1.026,5.803,1.397,8.743,1.131c2.927-0.22,5.849-1.28,7.851-3.398
				c1.991-2.106,2.852-5.16,2.581-8.065c-0.304-2.92-1.717-5.735-3.912-7.747C393.829,384.649,390.854,383.442,387.805,383.462z"/>
		</g>
	</g>
	<g>
		<g>
			<g>
				<path style="fill:#1D1D1B;" d="M282.618,339.917c-0.628,0.57-1.054,1.342-1.183,2.17c-0.134,0.827-0.036,1.68,0.198,2.484
					c0.477,1.612,1.35,3.082,2.385,4.397c2.079,2.652,5.174,4.305,8.36,5.24c3.216,0.893,6.596,1.287,9.938,1.311
					c1.667-0.022,3.379-0.053,5.035-0.173c0.831-0.067,1.657-0.167,2.455-0.345c0.791-0.18,1.573-0.452,2.15-0.906l0.493,0.599
					c-0.073,0.06-0.21,0.104-0.318,0.089c-0.113-0.017-0.084-0.023-0.132-0.038c-0.063-0.028-0.118-0.066-0.13-0.079
					c-0.05-0.04-0.092-0.079-0.119-0.109c-0.067-0.067-0.113-0.125-0.165-0.187l-0.274-0.358l-0.498-0.717l-0.935-1.452
					l-0.897-1.472c-0.275-0.489-0.622-0.99-0.829-1.578c-0.432-1.107-0.684-2.282-0.784-3.452c-0.105-1.171-0.085-2.335-0.048-3.482
					l0.919,0.033c0.006,0.292,0.413,0.782,0.865,1.125c0.457,0.364,0.975,0.685,1.505,0.984c1.067,0.577,2.216,1.109,3.343,1.476
					c2.311,0.659,4.827,0.621,7.202,0.1c4.812-1.075,9.064-3.869,13.705-5.881c4.637-2.033,9.585-3.352,14.582-4.045
					c2.49-0.366,5.041-0.64,7.612-0.409c2.562,0.217,5.139,1.13,7.163,2.792c2.046,1.632,3.467,4.015,3.971,6.58
					c0.245,1.284,0.262,2.624-0.01,3.915c-0.286,1.281-0.84,2.535-1.69,3.544c-1.655,2.03-4.224,3.359-6.883,3.252
					c-1.329-0.028-2.615-0.512-3.71-1.201c-1.103-0.697-2.036-1.606-2.853-2.585c-1.637-1.971-2.781-4.228-4.29-6.193
					c-1.46-1.953-3.458-3.683-5.897-4.094c-1.204-0.214-2.461,0.026-3.502,0.68c-1.034,0.634-1.881,1.672-2.064,2.892
					c-0.21,1.197,0.337,2.547,1.428,3.15c1.068,0.62,2.707,0.06,3.017-1.207c-0.277,1.274-1.924,1.904-3.059,1.286
					c-1.147-0.599-1.753-1.986-1.564-3.255c0.164-1.292,1.028-2.402,2.098-3.094c1.069-0.714,2.424-1.006,3.699-0.809
					c2.593,0.374,4.721,2.143,6.269,4.12c1.572,1.997,2.75,4.239,4.353,6.111c1.564,1.856,3.691,3.424,6.101,3.458
					c2.383,0.071,4.733-1.18,6.201-3.039c1.508-1.861,1.927-4.418,1.459-6.757c-0.476-2.352-1.783-4.53-3.672-6.021
					c-1.876-1.519-4.228-2.352-6.656-2.55c-2.434-0.208-4.91,0.061-7.371,0.436c-4.935,0.695-9.748,2.046-14.313,4.008
					c-4.547,1.936-8.855,4.761-13.914,5.879c-2.514,0.536-5.167,0.578-7.687-0.152c-1.255-0.416-2.387-0.953-3.523-1.57
					c-0.56-0.319-1.111-0.661-1.633-1.08c-0.26-0.211-0.515-0.44-0.743-0.729c-0.228-0.273-0.442-0.657-0.458-1.15l0.919,0.033
					c-0.095,2.265-0.064,4.528,0.722,6.592c0.163,0.499,0.47,0.953,0.748,1.461l0.868,1.468l0.902,1.443l0.47,0.697l0.242,0.326
					c0.039,0.048,0.082,0.102,0.116,0.136l0.037,0.038c0.014,0.013-0.009-0.009-0.041-0.021c-0.032-0.01,0.012,0.002-0.083-0.019
					c-0.09-0.017-0.209,0.025-0.265,0.082l0.493,0.599c-0.767,0.584-1.637,0.846-2.484,1.033c-0.854,0.178-1.71,0.269-2.562,0.327
					c-1.715,0.1-3.383,0.107-5.093,0.107c-1.703-0.026-3.402-0.165-5.085-0.406c-1.68-0.245-3.359-0.558-4.987-1.084
					c-3.229-1.031-6.353-2.797-8.41-5.553c-1.018-1.359-1.865-2.867-2.311-4.513c-0.218-0.82-0.297-1.69-0.141-2.526
					C281.526,341.239,281.977,340.472,282.618,339.917z"/>
			</g>
			<circle style="fill:#1D1D1B;" cx="283.634" cy="339.679" r="2.311"/>
			<circle style="fill:#1D1D1B;" cx="341.86" cy="345.742" r="2.311"/>
			<circle style="fill:#1D1D1B;" cx="359.918" cy="346.682" r="2.311"/>
			<g>
				<path style="fill:#1D1D1B;" d="M351.781,348.631c-0.135-1.466-0.034-3.005,0.563-4.441c0.563-1.443,1.753-2.7,3.217-3.327
					c0.721-0.316,1.515-0.515,2.333-0.512c0.81,0.013,1.665,0.242,2.319,0.76c0.66,0.492,1.147,1.267,1.182,2.099
					c0.02,0.804-0.327,1.633-0.989,2.007c0.493-0.555,0.637-1.303,0.47-1.941c-0.14-0.637-0.595-1.152-1.136-1.48
					c-1.102-0.666-2.538-0.515-3.752,0.044c-1.243,0.521-2.237,1.486-2.895,2.705C352.438,345.769,352.055,347.181,351.781,348.631z
					"/>
			</g>
		</g>
		<g>
			<g>
				<path style="fill:#1D1D1B;" d="M456.634,339.429c0.641,0.554,1.091,1.322,1.243,2.159c0.156,0.836,0.076,1.706-0.141,2.526
					c-0.445,1.646-1.293,3.154-2.311,4.513c-2.057,2.756-5.181,4.522-8.41,5.553c-1.628,0.526-3.307,0.839-4.987,1.084
					c-1.683,0.241-3.383,0.38-5.085,0.406c-1.71,0-3.378-0.007-5.093-0.107c-0.853-0.058-1.709-0.149-2.562-0.327
					c-0.848-0.187-1.717-0.449-2.484-1.033l0.493-0.599c-0.055-0.057-0.174-0.099-0.265-0.082c-0.095,0.021-0.051,0.009-0.083,0.019
					c-0.031,0.012-0.054,0.034-0.041,0.021l0.037-0.038c0.034-0.034,0.077-0.088,0.116-0.136l0.242-0.326l0.47-0.697l0.902-1.443
					l0.868-1.468c0.277-0.509,0.585-0.962,0.748-1.461c0.786-2.064,0.817-4.327,0.722-6.592l0.919-0.033
					c-0.016,0.492-0.23,0.877-0.458,1.15c-0.228,0.29-0.483,0.518-0.743,0.73c-0.522,0.419-1.073,0.761-1.633,1.08
					c-1.136,0.617-2.267,1.154-3.523,1.57c-2.521,0.73-5.174,0.688-7.687,0.152c-5.06-1.118-9.367-3.944-13.914-5.879
					c-4.565-1.962-9.378-3.313-14.313-4.008c-2.461-0.374-4.937-0.644-7.371-0.436c-2.428,0.199-4.781,1.031-6.656,2.55
					c-1.89,1.491-3.196,3.67-3.672,6.021c-0.468,2.34-0.048,4.896,1.459,6.757c1.468,1.859,3.817,3.109,6.201,3.039
					c2.41-0.035,4.537-1.603,6.101-3.458c1.603-1.872,2.781-4.114,4.353-6.111c1.547-1.977,3.676-3.746,6.269-4.12
					c1.275-0.197,2.63,0.095,3.699,0.809c1.07,0.692,1.934,1.802,2.098,3.094c0.189,1.268-0.417,2.656-1.564,3.255
					c-1.135,0.617-2.781-0.012-3.059-1.286c0.31,1.266,1.949,1.827,3.017,1.207c1.091-0.603,1.638-1.952,1.428-3.15
					c-0.184-1.22-1.03-2.257-2.064-2.892c-1.041-0.655-2.298-0.894-3.502-0.68c-2.439,0.41-4.437,2.14-5.897,4.094
					c-1.509,1.964-2.653,4.222-4.29,6.193c-0.816,0.979-1.75,1.888-2.853,2.585c-1.095,0.689-2.381,1.173-3.71,1.201
					c-2.659,0.107-5.228-1.222-6.883-3.252c-0.85-1.009-1.404-2.263-1.69-3.544c-0.272-1.291-0.255-2.631-0.01-3.915
					c0.504-2.565,1.925-4.949,3.971-6.58c2.025-1.661,4.601-2.574,7.163-2.792c2.571-0.231,5.122,0.043,7.612,0.409
					c4.997,0.693,9.945,2.012,14.582,4.045c4.641,2.012,8.893,4.806,13.705,5.881c2.375,0.522,4.891,0.559,7.202-0.1
					c1.127-0.367,2.277-0.899,3.343-1.476c0.531-0.298,1.048-0.62,1.505-0.984c0.452-0.343,0.859-0.834,0.865-1.125l0.919-0.033
					c0.038,1.147,0.057,2.311-0.048,3.482c-0.1,1.17-0.352,2.345-0.784,3.452c-0.207,0.588-0.554,1.089-0.829,1.578l-0.897,1.472
					l-0.935,1.452l-0.498,0.717l-0.274,0.358c-0.052,0.062-0.098,0.12-0.165,0.187c-0.027,0.03-0.069,0.069-0.119,0.109
					c-0.012,0.012-0.067,0.051-0.13,0.079c-0.048,0.015-0.019,0.021-0.132,0.038c-0.108,0.015-0.245-0.03-0.318-0.089l0.493-0.599
					c0.577,0.454,1.359,0.727,2.15,0.906c0.798,0.178,1.625,0.278,2.455,0.345c1.656,0.12,3.368,0.151,5.035,0.173
					c3.342-0.024,6.721-0.418,9.938-1.311c3.186-0.935,6.281-2.588,8.36-5.24c1.034-1.315,1.907-2.785,2.385-4.397
					c0.234-0.804,0.332-1.657,0.198-2.484C457.687,340.77,457.261,339.999,456.634,339.429z"/>
			</g>
			<circle style="fill:#1D1D1B;" cx="455.618" cy="339.19" r="2.311"/>
			<circle style="fill:#1D1D1B;" cx="397.392" cy="345.253" r="2.311"/>
			<circle style="fill:#1D1D1B;" cx="379.334" cy="346.194" r="2.311"/>
			<g>
				<path style="fill:#1D1D1B;" d="M387.47,348.143c-0.274-1.45-0.657-2.863-1.312-4.085c-0.659-1.219-1.652-2.185-2.895-2.705
					c-1.214-0.558-2.65-0.71-3.752-0.044c-0.541,0.328-0.996,0.843-1.136,1.48c-0.167,0.638-0.023,1.385,0.47,1.941
					c-0.662-0.374-1.01-1.203-0.989-2.007c0.035-0.832,0.522-1.607,1.182-2.099c0.654-0.518,1.51-0.747,2.319-0.76
					c0.818-0.002,1.612,0.196,2.333,0.512c1.464,0.627,2.654,1.884,3.217,3.327C387.505,345.138,387.606,346.677,387.47,348.143z"/>
			</g>
		</g>
	</g>
	<g>
		<g>
			<g>
				<path style="fill:#1D1D1B;" d="M287.504,222.3c-0.256-0.066-0.512-0.115-0.775-0.082c-0.244,0.07-0.493,0.206-0.586,0.46
					c-0.228,0.473-0.16,1.027-0.067,1.531c0.106,0.511,0.289,1.006,0.534,1.463c0.239,0.467,0.581,0.86,1.059,1.08
					c0.916,0.486,2.018,0.537,3.004,0.265c0.994-0.273,1.861-0.908,2.497-1.712c1.281-1.621,1.736-3.81,1.392-5.825
					c-0.322-2.022-1.395-3.935-2.997-5.183c-3.205-2.551-8.372-2.111-10.984,1.048c-1.345,1.522-2.146,3.477-2.552,5.478
					c-0.384,2.008-0.433,4.11,0.016,6.091c0.439,1.976,1.449,3.822,3.042,5.038c1.573,1.238,3.556,1.927,5.567,2.16
					c4.071,0.442,8.223-0.648,12.258-1.588c8.107-2.038,15.798-5.454,23.49-8.795c7.706-3.312,15.466-6.712,23.695-8.71
					c1.019-0.28,2.053-0.495,3.093-0.691c1.038-0.2,2.068-0.434,3.121-0.577c2.097-0.306,4.258-0.465,6.408-0.158
					c2.143,0.29,4.26,1.146,5.935,2.553c1.68,1.391,2.97,3.252,3.644,5.327c1.38,4.134,0.314,8.987-2.796,12.046
					c-1.521,1.535-3.55,2.603-5.708,2.87c-2.141,0.282-4.409-0.162-6.204-1.403c-1.782-1.242-3.029-3.203-3.374-5.334
					c-0.378-2.138,0.373-4.395,1.854-5.935c1.442-1.553,3.703-2.459,5.798-1.912c1.019,0.26,2.001,0.947,2.353,1.972
					c0.363,0.979,0.2,2.233-0.658,2.894c0.842-0.68,0.971-1.921,0.596-2.871c-0.364-0.993-1.328-1.636-2.324-1.869
					c-2.047-0.489-4.215,0.438-5.574,1.963c-1.399,1.52-2.059,3.677-1.66,5.691c0.367,2.012,1.594,3.845,3.281,4.968
					c1.691,1.129,3.822,1.53,5.829,1.239c2.02-0.276,3.894-1.29,5.31-2.749c2.891-2.906,3.827-7.478,2.496-11.311
					c-1.288-3.861-4.887-6.774-8.93-7.227c-4.06-0.535-8.221,0.529-12.258,1.455c-8.116,2.001-15.812,5.408-23.504,8.745
					c-7.706,3.31-15.458,6.723-23.677,8.757c-1.018,0.284-2.051,0.505-3.089,0.707c-1.037,0.206-2.066,0.444-3.115,0.597
					c-2.091,0.324-4.247,0.522-6.401,0.259c-2.143-0.26-4.285-0.993-6.012-2.378c-1.754-1.37-2.847-3.446-3.286-5.558
					c-0.454-2.128-0.373-4.314,0.053-6.417c0.45-2.093,1.315-4.152,2.781-5.775c2.891-3.384,8.417-3.786,11.809-1.006
					c1.687,1.373,2.763,3.409,3.058,5.53c0.315,2.116-0.206,4.386-1.575,6.047c-0.679,0.825-1.604,1.473-2.648,1.736
					c-1.034,0.262-2.176,0.185-3.116-0.339c-0.237-0.124-0.452-0.285-0.643-0.482c-0.172-0.207-0.319-0.431-0.439-0.667
					c-0.241-0.472-0.415-0.976-0.512-1.496c-0.083-0.512-0.142-1.075,0.102-1.558c0.101-0.259,0.363-0.397,0.612-0.461
					C286.994,222.174,287.25,222.229,287.504,222.3z"/>
			</g>
			<circle style="fill:#1D1D1B;" cx="287.708" cy="222.265" r="1.385"/>
			<circle style="fill:#1D1D1B;" cx="359.385" cy="226.433" r="1.385"/>
			<g>
				<circle style="fill:#1D1D1B;" cx="307.53" cy="222.434" r="1.385"/>
				<g>
					<path style="fill:#1D1D1B;" d="M290.703,213.424c1.569,0.739,2.896,1.934,4.046,3.238c1.133,1.332,2.063,2.811,2.97,4.277
						c0.922,1.456,1.742,2.974,2.786,4.264c1.024,1.301,2.31,2.354,3.873,2.712c1.545,0.386,3.267,0.295,4.761-0.262
						c1.503-0.537,2.75-1.731,3.241-3.235c0.498-1.47-0.044-3.315-1.401-4.174c-0.661-0.447-1.52-0.591-2.27-0.238
						c-0.743,0.328-1.356,1.036-1.494,1.892c0.02-0.87,0.571-1.713,1.367-2.144c0.791-0.477,1.857-0.414,2.66,0.038
						c1.657,0.915,2.418,3.026,1.928,4.848c-0.457,1.841-1.958,3.277-3.662,3.953c-1.722,0.669-3.596,0.778-5.393,0.355
						c-1.829-0.438-3.348-1.711-4.403-3.124c-1.073-1.432-1.883-2.966-2.7-4.476c-0.818-1.51-1.652-3.001-2.67-4.362
						C293.352,215.606,292.147,214.371,290.703,213.424z"/>
				</g>
			</g>
			<g>
				<circle style="fill:#1D1D1B;" cx="337.898" cy="228.04" r="1.385"/>
				<g>
					<path style="fill:#1D1D1B;" d="M355.915,221.738c-1.605,0.656-3.383,0.825-5.122,0.791c-1.747-0.066-3.466-0.382-5.16-0.705
						c-1.696-0.306-3.368-0.728-5.025-0.832c-1.651-0.125-3.296,0.11-4.617,1.019c-1.329,0.876-2.427,2.207-3.027,3.684
						c-0.621,1.471-0.584,3.196,0.191,4.575c0.746,1.361,2.471,2.209,4.022,1.791c0.777-0.185,1.463-0.72,1.71-1.512
						c0.261-0.769,0.154-1.699-0.383-2.38c0.627,0.603,0.876,1.579,0.655,2.457c-0.184,0.905-0.951,1.648-1.827,1.934
						c-1.795,0.601-3.864-0.265-4.875-1.858c-1.047-1.581-1.09-3.659-0.435-5.37c0.672-1.721,1.859-3.175,3.386-4.213
						c1.559-1.051,3.525-1.309,5.279-1.131c1.781,0.178,3.458,0.619,5.123,1.038c1.665,0.419,3.328,0.813,5.019,0.983
						C352.517,222.214,354.241,222.162,355.915,221.738z"/>
				</g>
			</g>
		</g>
		<g>
			<g>
				<path style="fill:#1D1D1B;" d="M451.747,222.3c0.254-0.071,0.51-0.126,0.778-0.098c0.249,0.064,0.512,0.203,0.612,0.461
					c0.244,0.483,0.185,1.046,0.102,1.558c-0.097,0.52-0.271,1.024-0.512,1.496c-0.121,0.236-0.268,0.46-0.439,0.667
					c-0.191,0.197-0.406,0.358-0.643,0.482c-0.94,0.523-2.082,0.601-3.116,0.339c-1.044-0.263-1.969-0.911-2.648-1.736
					c-1.369-1.661-1.891-3.931-1.575-6.047c0.295-2.121,1.371-4.157,3.058-5.53c3.391-2.78,8.918-2.378,11.809,1.006
					c1.466,1.623,2.33,3.682,2.781,5.775c0.426,2.103,0.507,4.289,0.053,6.417c-0.439,2.112-1.532,4.188-3.286,5.558
					c-1.727,1.385-3.869,2.117-6.012,2.378c-2.153,0.262-4.309,0.065-6.401-0.259c-1.05-0.154-2.078-0.391-3.115-0.597
					c-1.038-0.201-2.071-0.423-3.089-0.707c-8.219-2.034-15.971-5.446-23.677-8.757c-7.692-3.337-15.388-6.744-23.504-8.745
					c-4.037-0.926-8.198-1.99-12.258-1.455c-4.043,0.453-7.642,3.366-8.93,7.227c-1.33,3.833-0.395,8.405,2.496,11.311
					c1.416,1.459,3.29,2.474,5.31,2.749c2.008,0.291,4.139-0.11,5.829-1.239c1.687-1.123,2.914-2.956,3.281-4.968
					c0.399-2.014-0.261-4.171-1.66-5.691c-1.359-1.526-3.527-2.452-5.574-1.963c-0.995,0.233-1.959,0.876-2.324,1.869
					c-0.375,0.95-0.246,2.192,0.596,2.871c-0.857-0.662-1.021-1.915-0.658-2.894c0.352-1.025,1.333-1.713,2.353-1.972
					c2.095-0.547,4.355,0.359,5.798,1.912c1.482,1.539,2.232,3.797,1.854,5.935c-0.345,2.131-1.592,4.091-3.374,5.334
					c-1.795,1.241-4.063,1.685-6.204,1.403c-2.158-0.267-4.186-1.335-5.708-2.87c-3.11-3.059-4.176-7.912-2.796-12.046
					c0.674-2.074,1.963-3.936,3.644-5.327c1.675-1.407,3.792-2.264,5.935-2.553c2.15-0.308,4.311-0.148,6.408,0.158
					c1.053,0.144,2.083,0.377,3.121,0.577c1.039,0.196,2.074,0.412,3.093,0.691c8.229,1.998,15.989,5.398,23.695,8.71
					c7.691,3.34,15.382,6.756,23.49,8.795c4.035,0.941,8.186,2.031,12.258,1.588c2.011-0.233,3.994-0.922,5.567-2.16
					c1.593-1.216,2.603-3.062,3.042-5.038c0.449-1.98,0.4-4.082,0.016-6.091c-0.406-2.001-1.207-3.956-2.552-5.478
					c-2.612-3.158-7.779-3.599-10.984-1.048c-1.603,1.248-2.675,3.161-2.997,5.183c-0.344,2.015,0.111,4.204,1.392,5.825
					c0.636,0.804,1.503,1.439,2.497,1.712c0.987,0.272,2.089,0.221,3.004-0.265c0.477-0.22,0.819-0.613,1.059-1.08
					c0.246-0.457,0.428-0.952,0.534-1.463c0.093-0.503,0.161-1.058-0.067-1.531c-0.093-0.254-0.342-0.39-0.586-0.46
					C452.259,222.185,452.003,222.234,451.747,222.3z"/>
			</g>
			<circle style="fill:#1D1D1B;" cx="451.543" cy="222.265" r="1.385"/>
			<circle style="fill:#1D1D1B;" cx="379.866" cy="226.433" r="1.385"/>
			<g>
				<circle style="fill:#1D1D1B;" cx="431.721" cy="222.434" r="1.385"/>
				<g>
					<path style="fill:#1D1D1B;" d="M448.548,213.424c-1.445,0.946-2.649,2.181-3.64,3.562c-1.018,1.361-1.852,2.853-2.67,4.362
						c-0.817,1.51-1.627,3.044-2.7,4.476c-1.055,1.413-2.575,2.686-4.403,3.124c-1.797,0.423-3.671,0.313-5.393-0.355
						c-1.704-0.675-3.205-2.112-3.662-3.953c-0.489-1.823,0.272-3.933,1.928-4.848c0.803-0.452,1.869-0.515,2.66-0.038
						c0.797,0.432,1.347,1.275,1.367,2.144c-0.138-0.856-0.751-1.564-1.494-1.892c-0.751-0.353-1.609-0.21-2.27,0.238
						c-1.357,0.859-1.899,2.704-1.401,4.174c0.491,1.503,1.738,2.697,3.241,3.235c1.494,0.557,3.216,0.648,4.761,0.262
						c1.563-0.358,2.849-1.411,3.873-2.712c1.044-1.29,1.864-2.808,2.786-4.264c0.907-1.466,1.838-2.945,2.97-4.277
						C445.653,215.358,446.98,214.163,448.548,213.424z"/>
				</g>
			</g>
			<g>
				<circle style="fill:#1D1D1B;" cx="401.353" cy="228.04" r="1.385"/>
				<g>
					<path style="fill:#1D1D1B;" d="M383.336,221.738c1.674,0.424,3.398,0.476,5.086,0.272c1.691-0.171,3.354-0.565,5.019-0.983
						c1.665-0.42,3.342-0.86,5.123-1.038c1.754-0.178,3.72,0.08,5.279,1.131c1.527,1.037,2.714,2.492,3.386,4.213
						c0.655,1.712,0.612,3.789-0.435,5.37c-1.012,1.593-3.081,2.46-4.875,1.858c-0.876-0.286-1.643-1.029-1.827-1.934
						c-0.221-0.879,0.028-1.855,0.655-2.457c-0.537,0.681-0.644,1.611-0.383,2.38c0.247,0.792,0.934,1.327,1.71,1.512
						c1.551,0.419,3.276-0.43,4.022-1.791c0.775-1.379,0.812-3.104,0.191-4.575c-0.6-1.477-1.698-2.808-3.027-3.684
						c-1.321-0.909-2.966-1.144-4.617-1.019c-1.656,0.103-3.329,0.526-5.025,0.832c-1.693,0.323-3.412,0.638-5.16,0.705
						C386.719,222.562,384.941,222.394,383.336,221.738z"/>
				</g>
			</g>
		</g>
	</g>
	<g>
		<g>
			
				<line style="fill:none;stroke:#1D1D1B;stroke-width:1.0899;stroke-miterlimit:10;" x1="273.585" y1="155.926" x2="467.404" y2="155.926"/>
			<path style="fill:#1D1D1B;" d="M293.452,155.812c0,0-5.444,1.839-12.159,1.839c-6.715,0-12.159-0.823-12.159-1.839
				c0-1.016,5.444-1.839,12.159-1.839C288.009,153.973,293.452,155.812,293.452,155.812z"/>
			<path style="fill:#1D1D1B;" d="M445.799,155.812c0,0,5.444-1.839,12.159-1.839c6.715,0,12.159,0.823,12.159,1.839
				c0,1.016-5.444,1.839-12.159,1.839C451.243,157.651,445.799,155.812,445.799,155.812z"/>
		</g>
		<g>
			<path style="fill:#1D1D1B;" d="M305.583,160.793c0.12,0.45,0.176,0.922,0.331,1.349c0.14,0.433,0.445,0.773,0.857,0.912
				c0.812,0.323,1.779-0.142,2.112-0.868c0.353-0.74,0.056-1.623-0.543-2.224c-0.589-0.621-1.382-1.085-2.195-1.381
				c-1.661-0.566-3.518-0.531-5.311-0.29c-1.799,0.226-3.563,0.716-5.235,1.422c-3.334,1.404-6.375,3.651-8.542,6.554
				c-2.151,2.932-2.986,6.731-2.575,10.433c-0.412-1.82-0.478-3.732-0.186-5.608c0.329-1.869,1.04-3.681,2.084-5.289
				c2.138-3.194,5.307-5.571,8.807-7.074c1.766-0.723,3.625-1.235,5.528-1.439c1.879-0.187,3.873-0.231,5.724,0.528
				c0.911,0.391,1.746,0.934,2.405,1.7c0.323,0.384,0.595,0.841,0.71,1.361c0.11,0.521,0.054,1.074-0.212,1.551
				c-0.537,0.926-1.756,1.336-2.68,0.883c-0.47-0.199-0.804-0.657-0.902-1.124C305.651,161.72,305.651,161.254,305.583,160.793z"/>
		</g>
		<g>
			<path style="fill:#1D1D1B;" d="M305.561,151.337c0.085-0.459,0.101-0.924,0.227-1.388c0.115-0.464,0.465-0.91,0.942-1.092
				c0.939-0.42,2.143,0.034,2.647,0.979c0.249,0.486,0.285,1.041,0.156,1.557c-0.134,0.516-0.422,0.962-0.758,1.335
				c-0.686,0.742-1.54,1.255-2.464,1.613c-1.877,0.692-3.868,0.577-5.739,0.323c-1.894-0.271-3.734-0.849-5.473-1.635
				c-3.445-1.627-6.527-4.116-8.549-7.384c-0.986-1.644-1.633-3.481-1.894-5.36c-0.225-1.885-0.091-3.794,0.387-5.598
				c-0.543,3.685,0.156,7.511,2.201,10.518c2.062,2.979,5.021,5.333,8.303,6.855c1.646,0.765,3.391,1.318,5.181,1.608
				c1.783,0.305,3.637,0.406,5.318-0.1c0.823-0.267,1.632-0.703,2.243-1.302c0.62-0.579,0.948-1.451,0.622-2.203
				c-0.307-0.738-1.257-1.237-2.08-0.943c-0.417,0.123-0.734,0.452-0.889,0.88C305.77,150.421,305.697,150.891,305.561,151.337z"/>
		</g>
		<g>
			<path style="fill:#1D1D1B;" d="M434.729,151.124c-0.12-0.45-0.176-0.922-0.331-1.349c-0.14-0.433-0.445-0.773-0.857-0.912
				c-0.812-0.323-1.779,0.142-2.112,0.868c-0.353,0.74-0.056,1.622,0.543,2.224c0.589,0.621,1.382,1.085,2.195,1.381
				c1.661,0.566,3.518,0.531,5.311,0.29c1.799-0.226,3.563-0.716,5.235-1.422c3.334-1.404,6.375-3.651,8.542-6.554
				c2.151-2.932,2.986-6.731,2.575-10.433c0.412,1.82,0.478,3.732,0.186,5.608c-0.329,1.869-1.04,3.681-2.084,5.289
				c-2.138,3.194-5.307,5.571-8.807,7.074c-1.766,0.723-3.625,1.235-5.528,1.439c-1.879,0.187-3.873,0.231-5.724-0.528
				c-0.911-0.391-1.746-0.934-2.405-1.7c-0.323-0.384-0.595-0.841-0.71-1.361c-0.11-0.521-0.054-1.074,0.212-1.551
				c0.537-0.926,1.756-1.336,2.68-0.883c0.47,0.199,0.804,0.657,0.902,1.124C434.662,150.197,434.661,150.663,434.729,151.124z"/>
		</g>
		<g>
			<path style="fill:#1D1D1B;" d="M434.751,160.58c-0.085,0.459-0.101,0.924-0.227,1.388c-0.115,0.464-0.465,0.91-0.942,1.092
				c-0.939,0.42-2.143-0.034-2.647-0.979c-0.249-0.486-0.285-1.041-0.156-1.557c0.134-0.516,0.422-0.962,0.758-1.335
				c0.686-0.742,1.54-1.255,2.464-1.613c1.877-0.692,3.868-0.577,5.739-0.323c1.894,0.271,3.734,0.849,5.473,1.635
				c3.445,1.627,6.527,4.116,8.549,7.384c0.986,1.644,1.633,3.481,1.894,5.36c0.225,1.885,0.091,3.794-0.387,5.598
				c0.543-3.685-0.156-7.511-2.201-10.518c-2.062-2.979-5.021-5.333-8.303-6.855c-1.646-0.766-3.391-1.318-5.181-1.608
				c-1.783-0.305-3.637-0.406-5.318,0.1c-0.823,0.267-1.632,0.703-2.243,1.302c-0.62,0.579-0.948,1.451-0.622,2.203
				c0.307,0.738,1.257,1.237,2.08,0.943c0.417-0.123,0.734-0.452,0.889-0.88C434.542,161.496,434.615,161.026,434.751,160.58z"/>
		</g>
		<ellipse style="fill:#1D1D1B;" cx="315.455" cy="155.846" rx="1.158" ry="3.508"/>
		<ellipse style="fill:#1D1D1B;" cx="425.394" cy="155.846" rx="1.158" ry="3.508"/>
		<circle style="fill:#1D1D1B;" cx="370.255" cy="156.011" r="2.276"/>
		<circle style="fill:#1D1D1B;" cx="375.641" cy="156.011" r="1.672"/>
		<circle style="fill:#1D1D1B;" cx="365.127" cy="156.011" r="1.672"/>
	</g>
	<g>
		
			<line style="fill:none;stroke:#1D1D1B;stroke-width:1.067;stroke-miterlimit:10;" x1="39.646" y1="225.381" x2="226.744" y2="225.381"/>
		<g>
			<path style="fill:#1D1D1B;" d="M76.851,216.592c0.203,1.536,1.609,2.784,3.098,2.732c0.736-0.006,1.465-0.279,2.005-0.753
				c0.543-0.475,0.88-1.15,1.035-1.858c0.295-1.407,0.078-3.038-0.808-4.121c-0.894-1.084-2.499-1.309-3.913-1.107
				c-2.897,0.419-5.382,2.568-6.67,5.184c-1.304,2.672-1.562,5.757-1.375,8.761c0.165,3.017,0.63,6.068,1.993,8.721
				c0.678,1.317,1.58,2.527,2.696,3.483c1.111,0.94,2.446,1.712,3.851,1.874c1.402,0.182,2.792-0.548,3.718-1.665
				c0.93-1.098,1.465-2.625,1.094-4.021c-0.358-1.38-1.649-2.545-3.127-2.663c-0.734-0.055-1.492,0.149-2.138,0.532
				c-0.647,0.377-1.203,0.969-1.425,1.713c0.373-1.535,1.995-2.55,3.578-2.528c1.619,0.05,3.109,1.226,3.615,2.799
				c0.487,1.609-0.079,3.334-1.073,4.593c-0.503,0.636-1.131,1.188-1.873,1.567c-0.735,0.386-1.607,0.559-2.439,0.491
				c-1.68-0.14-3.152-0.966-4.377-1.989c-1.232-1.035-2.216-2.331-2.96-3.736c-1.49-2.838-1.997-6.018-2.196-9.112
				c-0.159-3.103,0.129-6.368,1.571-9.251c0.73-1.435,1.763-2.707,3.025-3.706c1.259-0.998,2.795-1.689,4.416-1.857
				c0.807-0.082,1.63-0.058,2.432,0.162c0.794,0.211,1.581,0.654,2.1,1.334c0.525,0.668,0.797,1.472,0.914,2.269
				c0.111,0.799,0.088,1.616-0.123,2.401c-0.212,0.779-0.634,1.53-1.283,2.041c-0.646,0.507-1.464,0.76-2.265,0.725
				C78.299,219.579,76.932,218.137,76.851,216.592z"/>
		</g>
		<g>
			<path style="fill:#1D1D1B;" d="M186.899,234.366c-0.203-1.536-1.609-2.784-3.098-2.732c-0.736,0.006-1.465,0.279-2.005,0.753
				c-0.543,0.475-0.88,1.15-1.035,1.858c-0.295,1.407-0.078,3.039,0.808,4.121c0.894,1.084,2.499,1.309,3.913,1.107
				c2.897-0.419,5.382-2.568,6.67-5.184c1.304-2.672,1.562-5.757,1.375-8.761c-0.165-3.017-0.63-6.068-1.993-8.721
				c-0.678-1.317-1.58-2.526-2.696-3.483c-1.111-0.94-2.446-1.712-3.851-1.874c-1.402-0.182-2.792,0.548-3.718,1.665
				c-0.93,1.098-1.465,2.625-1.094,4.021c0.358,1.38,1.649,2.545,3.127,2.663c0.734,0.055,1.492-0.149,2.138-0.532
				c0.647-0.377,1.203-0.969,1.425-1.713c-0.373,1.535-1.995,2.55-3.578,2.528c-1.619-0.05-3.109-1.226-3.615-2.799
				c-0.487-1.609,0.079-3.334,1.073-4.593c0.503-0.636,1.131-1.188,1.873-1.567c0.735-0.386,1.607-0.559,2.439-0.491
				c1.68,0.14,3.152,0.966,4.377,1.989c1.232,1.035,2.216,2.331,2.96,3.736c1.49,2.838,1.997,6.018,2.196,9.112
				c0.159,3.103-0.129,6.368-1.571,9.251c-0.73,1.435-1.763,2.707-3.025,3.706c-1.259,0.998-2.795,1.689-4.417,1.857
				c-0.807,0.082-1.63,0.058-2.432-0.162c-0.794-0.211-1.581-0.654-2.1-1.334c-0.525-0.668-0.797-1.472-0.914-2.269
				c-0.111-0.799-0.088-1.616,0.123-2.401c0.212-0.779,0.634-1.53,1.283-2.041c0.646-0.507,1.464-0.76,2.265-0.725
				C185.451,231.379,186.818,232.821,186.899,234.366z"/>
		</g>
		<circle style="fill:#1D1D1B;" cx="63.568" cy="225.291" r="2.616"/>
		<circle style="fill:#1D1D1B;" cx="88.976" cy="225.291" r="2.616"/>
		<circle style="fill:#1D1D1B;" cx="132.776" cy="225.291" r="3.244"/>
		<circle style="fill:#1D1D1B;" cx="201.711" cy="225.291" r="3.244"/>
		<circle style="fill:#1D1D1B;" cx="45.924" cy="225.291" r="1.567"/>
		<circle style="fill:#1D1D1B;" cx="124.932" cy="225.291" r="1.567"/>
		<circle style="fill:#1D1D1B;" cx="140.729" cy="225.291" r="1.567"/>
		<circle style="fill:#1D1D1B;" cx="176.535" cy="225.291" r="1.567"/>
		<circle style="fill:#1D1D1B;" cx="219.532" cy="225.291" r="1.567"/>
		<polygon style="fill:#1D1D1B;" points="42.007,221.294 42.007,229.059 31.857,225.291 		"/>
		<polygon style="fill:#1D1D1B;" points="223.177,229.059 223.177,221.294 233.326,225.062 		"/>
	</g>
	<g>
		<g>
			<path style="fill:#1D1D1B;" d="M37.982,279.209c5.697,0.69,11.426,1.098,17.158,1.22l0.087,0.002l0.05,0.074
				c2.405,3.584,6.18,6.263,10.393,7.091c4.208,0.827,8.727-0.08,12.277-2.452l0.119-0.08l0.145,0.027
				c7.941,1.472,15.95,2.543,23.971,3.512l-0.452,0.218c0.806-1.321,1.646-2.646,2.649-3.871c0.997-1.232,2.199-2.306,3.498-3.208
				c2.614-1.795,5.702-2.895,8.868-3.133c3.168-0.27,6.402,0.408,9.232,1.837c2.838,1.424,5.3,3.596,7.036,6.272l-0.879-0.025
				c3.669-5.024,9.903-8.049,16.128-7.676c6.211,0.396,12.054,4.117,15.042,9.563l-0.373-0.241
				c4.129,0.333,8.297,0.107,12.394-0.532c4.098-0.648,8.128-1.749,12-3.257l0.202-0.079l0.162,0.136
				c3.319,2.787,7.998,3.86,12.235,2.861c4.232-0.995,7.981-4.017,9.803-8.015l0.05-0.11l0.117,0.008
				c5.755,0.392,11.532,0.467,17.304,0.316c-5.767,0.266-11.55,0.307-17.324,0.028l0.167-0.102c-1.79,4.127-5.569,7.362-9.984,8.436
				c-4.401,1.088-9.295,0.036-12.831-2.862l0.364,0.057c-7.797,3.13-16.301,4.688-24.734,4.047l-0.251-0.019l-0.122-0.222
				c-2.838-5.143-8.432-8.67-14.283-9.013c-5.854-0.34-11.777,2.569-15.205,7.301l-0.457,0.631l-0.422-0.656
				c-1.617-2.512-3.93-4.574-6.605-5.927c-2.67-1.359-5.702-2.006-8.692-1.763c-2.989,0.213-5.923,1.245-8.399,2.933
				c-1.235,0.853-2.363,1.85-3.313,3.015c-0.959,1.161-1.782,2.446-2.587,3.755l-0.156,0.254l-0.296-0.036
				c-8.033-0.972-16.046-2.175-23.993-3.73l0.264-0.053c-3.741,2.437-8.432,3.317-12.784,2.413
				c-4.383-0.896-8.183-3.776-10.564-7.462l0.137,0.076C49.39,280.533,43.665,280.012,37.982,279.209z"/>
		</g>
		<path style="fill:none;stroke:#1D1D1B;stroke-width:1.067;stroke-miterlimit:10;" d="M122.637,291.251
			c5.586,6.744,4.897-2.187,9.954-2.187c5.032,0,5.713,8.999,10.617,2.664c0,0,1.907,4.223-1.771,5.654
			c-3.403,1.323-5.79-1.635-5.79-1.635s0.614,4.23,0.272,5.586c-0.355,1.408-2.997,4.973-2.997,4.973s-3.193-3.44-3.61-4.905
			c-0.356-1.248,0.409-5.177,0.409-5.177s-3.455,1.758-4.632,1.461C119.845,296.36,122.637,291.251,122.637,291.251z"/>
		
			<ellipse style="fill:#1D1D1B;stroke:#1D1D1B;stroke-width:1.0899;stroke-miterlimit:10;" cx="132.799" cy="293.567" rx="1.153" ry="1.839"/>
	</g>
	<g>
		<g>
			<g>
				<path style="fill:#1D1D1B;" d="M57.569,330.068c1.052,1.865,3.929,2.376,5.419,0.825c0.73-0.736,1.125-1.795,1.053-2.821
					c-0.053-1.038-0.67-1.965-1.494-2.576c-1.676-1.205-3.907-1.614-5.915-1.238c-2.007,0.382-3.848,1.806-4.45,3.747
					c-0.605,1.939-0.11,4.125,1.006,5.813c1.131,1.717,2.841,2.985,4.647,4.007c3.668,2.023,7.673,3.409,11.746,4.429
					c4.076,1.061,8.256,1.578,12.426,2.494c2.079,0.47,4.149,1.077,6.12,1.953c1.971,0.879,3.846,2.074,5.338,3.701
					c1.49,1.617,2.516,3.721,2.718,5.955c0.089,1.114-0.014,2.264-0.399,3.333c-0.367,1.073-0.987,2.046-1.746,2.864
					c-1.522,1.644-3.59,2.712-5.746,3.153c-2.16,0.454-4.374,0.364-6.5,0.023c-2.121-0.354-4.222-0.908-6.206-1.814
					c-1.974-0.907-3.819-2.198-5.217-3.912c-1.416-1.7-2.276-3.864-2.486-6.047c-0.233-2.189,0.081-4.397,0.764-6.459
					c1.381-4.117,4.232-7.745,8.02-9.91c3.804-2.169,8.121-2.856,12.257-3.589c8.317-1.523,17.113-1.757,25.254,0.904
					c4.042,1.324,7.884,3.315,11.165,6.019c0.824,0.669,1.604,1.393,2.342,2.154c0.75,0.747,1.458,1.553,2.005,2.471
					c0.54,0.91,0.896,1.981,0.772,3.05c-0.101,1.048-0.633,2.115-1.586,2.617c0.942-0.523,1.442-1.59,1.521-2.623
					c0.1-1.054-0.27-2.091-0.819-2.976c-0.555-0.891-1.27-1.673-2.032-2.4c-0.748-0.741-1.537-1.443-2.367-2.089
					c-3.306-2.613-7.144-4.501-11.158-5.725c-8.064-2.52-16.722-2.2-24.949-0.594c-4.135,0.785-8.348,1.518-11.945,3.582
					c-3.565,2.05-6.271,5.518-7.558,9.415c-0.638,1.949-0.92,4.025-0.696,6.047c0.207,2.024,0.986,3.955,2.285,5.507
					c1.287,1.566,2.999,2.763,4.863,3.61c1.87,0.847,3.897,1.373,5.943,1.711c2.039,0.336,4.126,0.421,6.116,0.009
					c1.981-0.396,3.848-1.364,5.213-2.825c1.381-1.446,2.093-3.43,1.901-5.42c-0.174-1.992-1.08-3.896-2.445-5.389
					c-2.777-3.034-6.911-4.467-10.945-5.408c-2.042-0.473-4.124-0.814-6.207-1.212c-2.084-0.398-4.161-0.849-6.218-1.389
					c-4.11-1.081-8.152-2.529-11.876-4.638c-1.842-1.071-3.624-2.413-4.815-4.263c-1.172-1.829-1.698-4.173-0.997-6.302
					c0.717-2.137,2.741-3.604,4.87-3.966c1.071-0.194,2.171-0.138,3.22,0.096c1.044,0.242,2.071,0.647,2.926,1.32
					c0.853,0.656,1.497,1.667,1.529,2.769c0.053,1.085-0.383,2.176-1.157,2.925C61.483,332.566,58.579,331.951,57.569,330.068z"/>
			</g>
			<circle style="fill:#1D1D1B;" cx="57.476" cy="329.669" r="1.929"/>
			<circle style="fill:#1D1D1B;" cx="88.203" cy="354.438" r="1.929"/>
			<circle style="fill:#1D1D1B;" cx="127.161" cy="351.182" r="1.929"/>
			<g>
				<path style="fill:#1D1D1B;" d="M87.455,347.122c-1.841,0.485-3.718,0.928-5.237,1.906c-1.516,0.95-2.625,2.53-2.457,4.222
					c0.053,0.827,0.422,1.585,1.067,2.082c0.633,0.518,1.498,0.772,2.362,0.81c1.762,0.019,3.637-0.615,4.977-1.981
					c-1.018,1.64-2.947,2.697-4.967,2.814c-1.028,0.059-2.097-0.206-2.985-0.839c-0.897-0.637-1.442-1.734-1.517-2.8
					c-0.075-1.07,0.217-2.153,0.813-3.024c0.592-0.865,1.402-1.536,2.288-1.998C83.588,347.353,85.564,347.205,87.455,347.122z"/>
			</g>
		</g>
		<g>
			<g>
				<path style="fill:#1D1D1B;" d="M207.614,330.068c-1.009,1.884-3.914,2.498-5.51,0.918c-0.774-0.749-1.209-1.839-1.157-2.925
					c0.032-1.102,0.676-2.113,1.529-2.769c0.855-0.673,1.882-1.078,2.926-1.32c1.049-0.234,2.15-0.29,3.22-0.096
					c2.13,0.362,4.153,1.83,4.87,3.966c0.7,2.129,0.175,4.473-0.997,6.302c-1.191,1.85-2.973,3.192-4.815,4.263
					c-3.723,2.11-7.766,3.557-11.876,4.638c-2.057,0.54-4.134,0.991-6.218,1.389c-2.083,0.398-4.165,0.739-6.207,1.212
					c-4.034,0.941-8.168,2.374-10.945,5.408c-1.365,1.493-2.271,3.397-2.445,5.389c-0.191,1.991,0.521,3.975,1.901,5.42
					c1.365,1.461,3.232,2.429,5.213,2.825c1.99,0.412,4.077,0.326,6.116-0.009c2.046-0.338,4.073-0.864,5.943-1.711
					c1.864-0.847,3.576-2.044,4.863-3.61c1.299-1.552,2.078-3.484,2.285-5.507c0.223-2.022-0.059-4.098-0.696-6.047
					c-1.287-3.897-3.994-7.365-7.558-9.415c-3.597-2.063-7.809-2.797-11.945-3.582c-8.227-1.606-16.886-1.926-24.949,0.594
					c-4.014,1.224-7.852,3.112-11.158,5.725c-0.831,0.646-1.619,1.348-2.367,2.089c-0.761,0.727-1.476,1.51-2.032,2.4
					c-0.549,0.885-0.919,1.922-0.819,2.976c0.079,1.034,0.579,2.1,1.521,2.623c-0.953-0.503-1.485-1.57-1.586-2.617
					c-0.124-1.069,0.232-2.139,0.772-3.05c0.546-0.918,1.255-1.724,2.005-2.471c0.738-0.761,1.518-1.485,2.342-2.154
					c3.281-2.704,7.123-4.696,11.165-6.019c8.141-2.66,16.937-2.426,25.254-0.904c4.136,0.734,8.453,1.42,12.257,3.589
					c3.788,2.164,6.639,5.793,8.02,9.91c0.682,2.062,0.996,4.27,0.764,6.459c-0.21,2.183-1.07,4.347-2.486,6.047
					c-1.398,1.715-3.243,3.006-5.217,3.912c-1.984,0.905-4.086,1.459-6.206,1.814c-2.125,0.341-4.339,0.431-6.5-0.023
					c-2.157-0.441-4.224-1.509-5.746-3.153c-0.759-0.818-1.379-1.791-1.746-2.864c-0.385-1.069-0.488-2.219-0.399-3.333
					c0.201-2.234,1.227-4.338,2.718-5.955c1.492-1.627,3.367-2.822,5.338-3.701c1.971-0.876,4.041-1.484,6.12-1.953
					c4.171-0.916,8.35-1.434,12.426-2.494c4.073-1.021,8.078-2.407,11.746-4.429c1.806-1.021,3.516-2.29,4.647-4.007
					c1.116-1.688,1.611-3.875,1.006-5.813c-0.602-1.941-2.443-3.365-4.45-3.747c-2.008-0.376-4.239,0.034-5.915,1.238
					c-0.824,0.611-1.441,1.537-1.494,2.576c-0.072,1.026,0.323,2.085,1.053,2.821C203.685,332.444,206.563,331.932,207.614,330.068z
					"/>
			</g>
			<circle style="fill:#1D1D1B;" cx="207.708" cy="329.669" r="1.929"/>
			<circle style="fill:#1D1D1B;" cx="176.981" cy="354.438" r="1.929"/>
			<circle style="fill:#1D1D1B;" cx="138.023" cy="351.182" r="1.929"/>
			<g>
				<path style="fill:#1D1D1B;" d="M177.729,347.122c1.89,0.083,3.866,0.231,5.656,1.19c0.886,0.462,1.696,1.133,2.288,1.998
					c0.595,0.871,0.887,1.954,0.813,3.024c-0.075,1.066-0.62,2.163-1.517,2.8c-0.888,0.634-1.957,0.898-2.985,0.839
					c-2.02-0.117-3.949-1.173-4.967-2.814c1.34,1.366,3.215,2,4.977,1.981c0.864-0.039,1.729-0.292,2.362-0.81
					c0.644-0.497,1.014-1.255,1.067-2.082c0.169-1.691-0.94-3.272-2.457-4.222C181.447,348.05,179.57,347.607,177.729,347.122z"/>
			</g>
		</g>
	</g>
	<g>
		<g>
			<path style="fill:#1D1D1B;" d="M51.726,388.381c-0.949-0.718-2.1-1.19-3.289-1.202c-1.187-0.023-2.353,0.395-3.32,1.067
				c-1.94,1.355-3.213,3.599-3.433,5.929c-0.222,2.348,0.534,4.711,1.806,6.672c1.268,1.986,3.047,3.604,5.064,4.807
				c4.04,2.446,8.881,3.282,13.574,3.109c4.726-0.162,9.355-1.357,13.895-2.729c4.543-1.385,9.074-2.947,13.76-3.974
				c4.671-1.059,9.425-1.749,14.204-2.07c4.781-0.304,9.578-0.314,14.364,0.163c4.774,0.496,9.548,1.634,13.891,3.811l-0.577,0.064
				c2.002-1.632,4.491-2.341,6.876-2.789c1.203-0.225,2.405-0.388,3.594-0.563c1.182-0.177,2.388-0.371,3.586-0.527
				c4.796-0.645,9.692-0.941,14.541-0.465c4.84,0.441,9.631,1.441,14.236,2.99c4.608,1.532,9.012,3.524,13.548,5.089
				c2.268,0.778,4.57,1.453,6.916,1.901c2.345,0.448,4.733,0.63,7.122,0.563c4.765-0.149,9.556-1.206,13.822-3.349
				c2.11-1.091,4.031-2.591,5.47-4.487c0.713-0.95,1.289-2.002,1.69-3.121c0.379-1.121,0.516-2.315,0.453-3.504
				c-0.18-2.357-1.062-4.751-2.776-6.437c-0.847-0.833-1.903-1.489-3.086-1.731c-1.185-0.232-2.404-0.056-3.549,0.322
				c1.137-0.397,2.358-0.599,3.561-0.386c1.201,0.223,2.287,0.869,3.164,1.701c1.774,1.685,2.718,4.099,2.946,6.512
				c0.087,1.217-0.03,2.455-0.405,3.629c-0.391,1.16-0.966,2.256-1.683,3.248c-1.447,1.981-3.394,3.556-5.541,4.717
				c-4.339,2.242-9.187,3.355-14.045,3.561c-2.432,0.094-4.881-0.068-7.28-0.501c-2.398-0.433-4.744-1.095-7.044-1.858
				c-4.605-1.527-9.024-3.486-13.575-4.992c-4.544-1.512-9.263-2.48-14.031-2.898c-4.766-0.452-9.564-0.146-14.318,0.509
				c-1.193,0.16-2.368,0.352-3.57,0.537c-1.196,0.18-2.384,0.346-3.552,0.569c-2.323,0.439-4.622,1.14-6.396,2.583l-0.27,0.219
				l-0.308-0.156c-4.19-2.118-8.83-3.248-13.52-3.751c-4.697-0.485-9.466-0.493-14.192-0.207c-4.73,0.302-9.439,0.97-14.066,2.002
				c-4.633,1.011-9.145,2.511-13.729,3.857c-4.576,1.332-9.281,2.5-14.107,2.618c-4.784,0.124-9.74-0.766-13.865-3.338
				c-2.049-1.272-3.855-2.975-5.121-5.039c-1.271-2.04-2.008-4.489-1.735-6.904c0.272-2.405,1.618-4.665,3.617-6.01
				c0.997-0.667,2.192-1.07,3.394-1.025C49.643,387.149,50.791,387.647,51.726,388.381z"/>
		</g>
		<circle style="fill:#1D1D1B;" cx="132.001" cy="403.014" r="3.202"/>
		<path style="fill:#1D1D1B;" d="M110.611,397.006v5.539l1.693,5.796c5.18-3.077,0.567-8.036,0.567-8.036s4.255-4.222,0-8.018
			L110.611,397.006z"/>
		<path style="fill:#1D1D1B;" d="M153.59,403.622v-5.539l-1.693-5.796c-5.18,3.077-0.567,8.036-0.567,8.036s-4.255,4.222,0,8.018
			L153.59,403.622z"/>
	</g>
	<g>
		<g>
			<g>
				<path style="fill:#1D1D1B;" d="M53.098,156.25c-7.066-0.046-12.848,4.952-19.94,5.27c-0.436,0.038-0.874-0.016-1.312-0.02
					c-0.435,0.001-0.886-0.069-1.318-0.178c-0.844-0.224-1.769-0.633-2.227-1.528c-0.221-0.433-0.274-0.961-0.137-1.432
					c0.129-0.474,0.413-0.879,0.758-1.2c0.697-0.662,1.699-0.882,2.589-0.845c0.909,0.029,1.765,0.248,2.605,0.452
					c0.845,0.205,1.68,0.442,2.511,0.694c1.659,0.509,3.292,1.09,4.911,1.697c3.236,1.214,6.429,2.523,9.71,3.516
					c3.276,0.982,6.663,1.663,10.056,1.598c3.382-0.054,6.747-0.924,9.603-2.728c2.875-1.779,5.218-4.317,7.322-7.006l0.667-0.852
					l0.188,1.072c0.229,1.305,1.107,2.451,2.333,3.032c1.205,0.594,2.663,0.741,3.941,0.324c1.288-0.38,2.337-1.371,2.951-2.587
					c0.626-1.213,0.834-2.648,0.619-3.996c-0.441-2.73-2.631-5.019-5.203-6.061c-2.571-1.064-5.71-0.974-7.954,0.662
					c-2.253,1.63-3.528,4.469-3.525,7.273c-0.025,2.824,1.073,5.647,2.92,7.8c1.847,2.167,4.451,3.644,7.223,4.371
					c2.781,0.752,5.737,0.748,8.567,0.148c2.839-0.585,5.548-1.746,8.065-3.211c2.522-1.471,4.844-3.288,7.186-5.091
					c2.34-1.804,4.725-3.607,7.356-5.037c2.615-1.43,5.518-2.472,8.535-2.644c1.501-0.086,3.021,0.016,4.489,0.389
					c1.454,0.393,2.893,1.016,3.991,2.123c2.186,2.183,2.557,5.933,0.703,8.404c-0.902,1.214-2.318,2.094-3.854,2.152
					c-1.508,0.073-3.107-0.766-3.655-2.219c-0.282-0.7-0.329-1.507-0.06-2.217c0.268-0.709,0.835-1.288,1.523-1.586
					c1.405-0.687,3.233,0.422,3.3,1.947c-0.1-1.525-1.926-2.563-3.267-1.871c-0.662,0.301-1.198,0.872-1.44,1.553
					c-0.244,0.682-0.184,1.451,0.096,2.112c0.545,1.37,2.07,2.128,3.492,2.035c1.442-0.08,2.77-0.937,3.599-2.1
					c1.708-2.357,1.272-5.889-0.786-7.859c-1.014-0.986-2.395-1.574-3.778-1.932c-1.403-0.341-2.867-0.425-4.313-0.327
					c-2.905,0.196-5.695,1.227-8.238,2.652c-2.556,1.423-4.889,3.223-7.207,5.049c-2.32,1.824-4.647,3.689-7.222,5.228
					c-2.568,1.535-5.369,2.731-8.323,3.357c-2.944,0.635-6.062,0.655-9.001-0.13c-2.932-0.76-5.718-2.313-7.728-4.653
					c-2.002-2.323-3.201-5.351-3.188-8.45c-0.007-3.083,1.364-6.239,3.929-8.114c5.331-3.807,13.655-0.327,14.783,6.087
					c0.243,1.568,0,3.203-0.733,4.618c-0.714,1.411-1.985,2.616-3.553,3.075c-1.544,0.489-3.241,0.313-4.678-0.399
					c-1.455-0.69-2.578-2.129-2.845-3.751l0.855,0.22c-2.146,2.721-4.568,5.342-7.593,7.201c-3.005,1.88-6.567,2.805-10.078,2.816
					c-3.525,0.03-6.982-0.709-10.295-1.739c-3.319-1.043-6.508-2.391-9.72-3.633c-1.606-0.621-3.22-1.214-4.856-1.735
					c-0.819-0.257-1.641-0.5-2.472-0.711c-0.831-0.213-1.661-0.429-2.481-0.461c-0.819-0.037-1.633,0.145-2.218,0.679
					c-0.597,0.507-0.89,1.342-0.543,2.033c0.324,0.691,1.123,1.104,1.907,1.32c0.796,0.224,1.666,0.214,2.511,0.232
					C40.062,160.979,46.037,156.076,53.098,156.25z"/>
			</g>
			<g>
				<path style="fill:#1D1D1B;" d="M212.085,156.25c7.061-0.174,13.036,4.729,19.95,4.888c0.845-0.018,1.715-0.008,2.511-0.232
					c0.784-0.216,1.583-0.629,1.907-1.32c0.347-0.691,0.055-1.526-0.543-2.033c-0.585-0.535-1.399-0.716-2.218-0.679
					c-0.82,0.033-1.65,0.249-2.481,0.461c-0.83,0.211-1.653,0.454-2.472,0.711c-1.636,0.521-3.25,1.114-4.856,1.735
					c-3.212,1.243-6.401,2.59-9.72,3.633c-3.313,1.03-6.771,1.77-10.295,1.739c-3.511-0.011-7.073-0.937-10.078-2.816
					c-3.025-1.859-5.447-4.479-7.593-7.201l0.855-0.22c-0.267,1.623-1.39,3.062-2.845,3.751c-1.437,0.712-3.133,0.888-4.678,0.399
					c-1.568-0.459-2.84-1.664-3.553-3.075c-0.733-1.416-0.976-3.051-0.733-4.618c1.128-6.415,9.452-9.894,14.783-6.087
					c2.565,1.875,3.936,5.031,3.929,8.114c0.013,3.099-1.187,6.127-3.188,8.45c-2.01,2.34-4.796,3.893-7.728,4.653
					c-2.939,0.785-6.057,0.765-9.001,0.13c-2.955-0.625-5.755-1.822-8.323-3.357c-2.574-1.539-4.902-3.403-7.222-5.228
					c-2.318-1.826-4.651-3.626-7.207-5.049c-2.543-1.424-5.333-2.455-8.238-2.652c-1.446-0.098-2.911-0.014-4.313,0.327
					c-1.383,0.359-2.764,0.946-3.778,1.932c-2.058,1.97-2.494,5.502-0.786,7.859c0.83,1.162,2.157,2.02,3.599,2.1
					c1.422,0.093,2.947-0.665,3.492-2.035c0.281-0.661,0.341-1.43,0.096-2.112c-0.242-0.681-0.778-1.252-1.44-1.553
					c-1.341-0.692-3.167,0.346-3.267,1.871c0.067-1.525,1.895-2.633,3.3-1.947c0.689,0.298,1.255,0.876,1.523,1.586
					c0.269,0.711,0.222,1.518-0.06,2.217c-0.548,1.453-2.147,2.292-3.655,2.219c-1.536-0.058-2.952-0.938-3.854-2.152
					c-1.855-2.471-1.483-6.221,0.703-8.404c1.098-1.108,2.536-1.73,3.991-2.123c1.468-0.373,2.989-0.475,4.489-0.389
					c3.017,0.172,5.92,1.214,8.535,2.644c2.631,1.429,5.016,3.233,7.356,5.037c2.342,1.803,4.664,3.62,7.186,5.091
					c2.517,1.465,5.225,2.626,8.065,3.211c2.83,0.599,5.786,0.604,8.567-0.148c2.772-0.728,5.377-2.204,7.223-4.371
					c1.847-2.153,2.945-4.977,2.92-7.8c0.002-2.804-1.272-5.643-3.525-7.273c-2.244-1.636-5.383-1.726-7.954-0.662
					c-2.572,1.042-4.762,3.331-5.203,6.061c-0.216,1.349-0.007,2.783,0.619,3.996c0.614,1.215,1.664,2.207,2.951,2.587
					c1.277,0.416,2.736,0.269,3.941-0.324c1.226-0.582,2.104-1.727,2.333-3.032l0.188-1.072l0.667,0.852
					c2.104,2.689,4.447,5.227,7.322,7.006c2.855,1.804,6.22,2.674,9.603,2.728c3.393,0.066,6.781-0.616,10.056-1.598
					c3.28-0.993,6.474-2.302,9.71-3.516c1.619-0.607,3.252-1.188,4.911-1.697c0.831-0.251,1.666-0.489,2.511-0.694
					c0.839-0.204,1.695-0.423,2.605-0.452c0.89-0.036,1.892,0.183,2.589,0.845c0.344,0.321,0.629,0.726,0.758,1.2
					c0.137,0.471,0.084,0.999-0.137,1.432c-0.458,0.895-1.383,1.304-2.227,1.528c-0.432,0.109-0.883,0.178-1.318,0.178
					c-0.438,0.004-0.876,0.059-1.312,0.02C224.933,161.202,219.152,156.204,212.085,156.25z"/>
			</g>
		</g>
		<g>
			<path style="fill:#1D1D1B;" d="M133.353,145.618c0,2.055-1.182,3.721-1.182,3.721s-1.182-1.666-1.182-3.721
				c0-2.055,0.529-3.721,1.182-3.721C132.824,141.897,133.353,143.563,133.353,145.618z"/>
			<path style="fill:#1D1D1B;" d="M135.362,147.966c-0.497,0.917-1.428,1.374-1.428,1.374s-0.124-1.029,0.373-1.946
				c0.497-0.917,1.136-1.532,1.428-1.374C136.026,146.178,135.859,147.049,135.362,147.966z"/>
			<path style="fill:#1D1D1B;" d="M130.215,147.4c0.486,0.923,0.349,1.95,0.349,1.95s-0.925-0.469-1.41-1.392
				c-0.486-0.923-0.642-1.796-0.349-1.95C129.098,145.854,129.729,146.477,130.215,147.4z"/>
		</g>
	</g>
</g>
<g id="DESIGNED_BY_FREEPIK">
	<g>
		<g id="XMLID_2_">
			<g id="XMLID_1043_">
				<path id="XMLID_1051_" style="fill:#1D262D;" d="M260.104,465.465c-0.432,0.443-0.803,0.931-1.108,1.453l-0.465-0.241
					c-0.067-0.298-0.349-0.503-0.659-0.466c-0.331,0.039-0.568,0.339-0.529,0.67c0.039,0.331,0.339,0.568,0.67,0.529
					c0.066-0.008,0.127-0.026,0.184-0.052l0.451,0.234c-0.251,0.554-0.433,1.139-0.539,1.744l0.747,0.132
					c0.23-1.306,0.85-2.507,1.792-3.473L260.104,465.465z"/>
				<path id="XMLID_1050_" style="fill:#1D262D;" d="M265.592,463.163c-0.171,0-0.341,0.006-0.51,0.017l-0.074-0.626
					c0.188-0.149,0.296-0.389,0.266-0.645c-0.046-0.393-0.402-0.674-0.795-0.628c-0.393,0.046-0.674,0.402-0.628,0.795
					c0.03,0.254,0.189,0.461,0.404,0.564l0.074,0.624c-0.714,0.116-1.403,0.332-2.06,0.646l0.327,0.684
					c0.934-0.447,1.942-0.673,2.995-0.673c0.496,0,0.993,0.053,1.475,0.158l0.161-0.741
					C266.692,463.222,266.142,463.163,265.592,463.163z"/>
				<path id="XMLID_1049_" style="fill:#1D262D;" d="M272.194,465.711c0.331-0.04,0.566-0.341,0.526-0.672
					c-0.04-0.331-0.341-0.566-0.672-0.526c-0.309,0.038-0.535,0.304-0.53,0.609l-0.416,0.363c-0.418-0.43-0.889-0.813-1.408-1.139
					l-0.404,0.641c1.134,0.715,2.021,1.726,2.563,2.925l0.691-0.313c-0.251-0.554-0.568-1.072-0.942-1.545l0.402-0.351
					C272.065,465.716,272.129,465.719,272.194,465.711z"/>
				<path id="XMLID_1048_" style="fill:#1D262D;" d="M265.044,473.372c-0.386,0.023-0.775,0.035-1.157,0.035
					c-0.88,0-1.733-0.061-2.478-0.179c-0.39-0.062-0.846-0.155-1.27-0.292c1.046,1.861,3.069,3.125,5.388,3.125
					c2.855,0,5.262-1.916,5.95-4.504c-0.682,0.449-1.505,0.825-2.459,1.123C267.839,473.047,266.463,473.286,265.044,473.372z"/>
				<path id="XMLID_1044_" style="fill:#1D262D;" d="M265.592,464.68c-3.352,0-6.08,2.666-6.08,5.943
					c0,0.426,0.046,0.849,0.137,1.261c0.673,0.483,2.706,0.89,5.348,0.731c2.879-0.173,5.297-0.957,6.672-2.159
					c-0.006-0.195-0.021-0.39-0.045-0.582C271.244,466.913,268.65,464.68,265.592,464.68z M263.432,471.194
					c-1.02,0-1.85-0.83-1.85-1.85c0-1.02,0.83-1.85,1.85-1.85c1.02,0,1.85,0.83,1.85,1.85
					C265.282,470.365,264.452,471.194,263.432,471.194z M268.17,470.286c-0.75,0-1.36-0.61-1.36-1.36s0.61-1.361,1.36-1.361
					c0.75,0,1.361,0.61,1.361,1.361S268.92,470.286,268.17,470.286z"/>
			</g>
			<path id="XMLID_1041_" style="fill:#1D262D;" d="M281.595,466.547c-0.295-0.116-0.805-0.309-1.382-0.237
				c-0.551,0.069-0.844,0.341-0.844,1.007v0.866h2.228v1.717h-2.228v5.455h-1.932v-5.455h-1.34v-1.717h1.34v-0.888
				c0-1.68,0.896-2.783,2.568-2.783c0.643,0,1.157,0.122,1.59,0.308L281.595,466.547z"/>
			<path id="XMLID_1039_" style="fill:#1D262D;" d="M286.298,469.879c-0.177-0.03-0.358-0.046-0.526-0.046
				c-0.896,0-1.51,0.548-1.51,1.614v3.908h-1.932v-7.172h1.873v0.785c0.451-0.673,1.14-0.977,2.021-0.977
				c0.414,0,0.848,0.128,1.094,0.337L286.298,469.879z"/>
			<path id="XMLID_88_" style="fill:#1D262D;" d="M293.965,471.757c0,0.222-0.015,0.489-0.037,0.651h-5.085
				c0.207,1.036,0.933,1.488,1.843,1.488c0.622,0,1.295-0.252,1.813-0.688l1.133,1.243c-0.814,0.748-1.85,1.088-3.057,1.088
				c-2.198,0-3.723-1.495-3.723-3.753c0-2.258,1.48-3.797,3.627-3.797C292.544,467.99,293.958,469.522,293.965,471.757z
				 M288.851,471.091h3.175c-0.177-0.918-0.733-1.436-1.562-1.436C289.554,469.655,289.021,470.203,288.851,471.091z"/>
			<path id="XMLID_85_" style="fill:#1D262D;" d="M301.618,471.757c0,0.222-0.015,0.489-0.037,0.651h-5.085
				c0.207,1.036,0.933,1.488,1.843,1.488c0.622,0,1.295-0.252,1.814-0.688l1.132,1.243c-0.814,0.748-1.85,1.088-3.057,1.088
				c-2.198,0-3.723-1.495-3.723-3.753c0-2.258,1.48-3.797,3.627-3.797C300.197,467.99,301.611,469.522,301.618,471.757z
				 M296.504,471.091h3.175c-0.178-0.918-0.733-1.436-1.562-1.436C297.207,469.655,296.674,470.203,296.504,471.091z"/>
			<path id="XMLID_62_" style="fill:#1D262D;" d="M309.964,471.764c0,2.154-1.495,3.775-3.471,3.775
				c-0.962,0-1.643-0.378-2.109-0.933v3.708h-1.924v-10.133h1.887v0.792c0.466-0.585,1.155-0.984,2.139-0.984
				C308.469,467.99,309.964,469.61,309.964,471.764z M304.287,471.764c0,1.132,0.747,1.976,1.843,1.976
				c1.14,0,1.85-0.881,1.85-1.976c0-1.095-0.71-1.976-1.85-1.976C305.035,469.788,304.287,470.632,304.287,471.764z"/>
			<path id="XMLID_9_" style="fill:#1D262D;" d="M313.068,465.836c0,0.696-0.54,1.229-1.236,1.229c-0.696,0-1.229-0.533-1.229-1.229
				c0-0.696,0.533-1.243,1.229-1.243C312.527,464.592,313.068,465.14,313.068,465.836z M312.809,475.354h-1.932v-7.172h1.932
				V475.354z"/>
			<path id="XMLID_3_" style="fill:#1D262D;" d="M316.032,470.736l2.701-2.554h2.368l-3.479,3.375l3.501,3.797h-2.376l-2.716-2.901
				v2.901H314.1v-10.658h1.932V470.736z"/>
		</g>
		<g>
			<path style="fill:#1D262D;" d="M184.412,475.289v-1.055c-0.527,0.718-1.391,1.23-2.387,1.23c-1.846,0-3.149-1.406-3.149-3.706
				c0-2.256,1.289-3.721,3.149-3.721c0.952,0,1.816,0.469,2.387,1.245v-3.765h1.099v9.77H184.412z M184.412,473.37v-3.208
				c-0.395-0.615-1.245-1.143-2.124-1.143c-1.421,0-2.27,1.172-2.27,2.739c0,1.567,0.85,2.724,2.27,2.724
				C183.168,474.483,184.017,473.986,184.412,473.37z"/>
			<path style="fill:#1D262D;" d="M186.932,471.744c0-2.051,1.465-3.706,3.486-3.706c2.139,0,3.398,1.67,3.398,3.794v0.279h-5.727
				c0.088,1.333,1.025,2.446,2.549,2.446c0.805,0,1.626-0.322,2.182-0.894l0.527,0.718c-0.703,0.703-1.655,1.084-2.812,1.084
				C188.44,475.465,186.932,473.956,186.932,471.744z M190.403,468.947c-1.509,0-2.256,1.274-2.314,2.358h4.643
				C192.718,470.25,192.015,468.947,190.403,468.947z"/>
			<path style="fill:#1D262D;" d="M194.607,474.351l0.571-0.791c0.469,0.542,1.362,1.011,2.329,1.011c1.084,0,1.67-0.513,1.67-1.216
				c0-1.714-4.38-0.659-4.38-3.281c0-1.098,0.952-2.036,2.636-2.036c1.201,0,2.051,0.454,2.622,1.026l-0.513,0.762
				c-0.424-0.513-1.201-0.894-2.109-0.894c-0.967,0-1.567,0.483-1.567,1.113c0,1.552,4.38,0.527,4.38,3.281
				c0,1.187-0.952,2.138-2.783,2.138C196.306,475.465,195.325,475.113,194.607,474.351z"/>
			<path style="fill:#1D262D;" d="M201.477,466.471c0-0.41,0.337-0.747,0.732-0.747c0.41,0,0.747,0.337,0.747,0.747
				c0,0.41-0.337,0.732-0.747,0.732C201.814,467.203,201.477,466.881,201.477,466.471z M201.667,475.289v-7.075h1.099v7.075H201.667
				z"/>
			<path style="fill:#1D262D;" d="M204.582,477.105l0.556-0.82c0.586,0.703,1.289,0.967,2.3,0.967c1.172,0,2.27-0.571,2.27-2.124
				v-1.011c-0.513,0.718-1.377,1.26-2.373,1.26c-1.845,0-3.149-1.377-3.149-3.662c0-2.27,1.289-3.677,3.149-3.677
				c0.952,0,1.802,0.469,2.373,1.245v-1.069h1.098v6.87c0,2.344-1.641,3.076-3.369,3.076
				C206.237,478.16,205.417,477.926,204.582,477.105z M209.709,473.253v-3.091c-0.381-0.615-1.23-1.143-2.109-1.143
				c-1.421,0-2.27,1.128-2.27,2.695c0,1.553,0.849,2.695,2.27,2.695C208.478,474.41,209.328,473.868,209.709,473.253z"/>
			<path style="fill:#1D262D;" d="M217.413,475.289v-4.629c0-1.245-0.63-1.641-1.582-1.641c-0.864,0-1.685,0.527-2.095,1.099v5.17
				h-1.099v-7.075h1.099v1.025c0.498-0.586,1.464-1.201,2.519-1.201c1.48,0,2.256,0.747,2.256,2.285v4.966H217.413z"/>
			<path style="fill:#1D262D;" d="M219.932,471.744c0-2.051,1.465-3.706,3.486-3.706c2.139,0,3.398,1.67,3.398,3.794v0.279h-5.727
				c0.088,1.333,1.025,2.446,2.549,2.446c0.806,0,1.626-0.322,2.183-0.894l0.527,0.718c-0.703,0.703-1.655,1.084-2.812,1.084
				C221.441,475.465,219.932,473.956,219.932,471.744z M223.404,468.947c-1.509,0-2.256,1.274-2.314,2.358h4.643
				C225.718,470.25,225.015,468.947,223.404,468.947z"/>
			<path style="fill:#1D262D;" d="M233.35,475.289v-1.055c-0.527,0.718-1.392,1.23-2.388,1.23c-1.846,0-3.149-1.406-3.149-3.706
				c0-2.256,1.289-3.721,3.149-3.721c0.952,0,1.817,0.469,2.388,1.245v-3.765h1.098v9.77H233.35z M233.35,473.37v-3.208
				c-0.396-0.615-1.245-1.143-2.124-1.143c-1.421,0-2.27,1.172-2.27,2.739c0,1.567,0.849,2.724,2.27,2.724
				C232.105,474.483,232.954,473.986,233.35,473.37z"/>
			<path style="fill:#1D262D;" d="M239.692,475.289v-9.77h1.098v3.765c0.572-0.776,1.421-1.245,2.388-1.245
				c1.845,0,3.149,1.465,3.149,3.721c0,2.299-1.304,3.706-3.149,3.706c-0.996,0-1.86-0.513-2.388-1.23v1.055H239.692z
				 M242.9,474.483c1.436,0,2.286-1.157,2.286-2.724c0-1.568-0.85-2.739-2.286-2.739c-0.864,0-1.728,0.527-2.109,1.143v3.208
				C241.171,473.986,242.036,474.483,242.9,474.483z"/>
			<path style="fill:#1D262D;" d="M247.529,477.061c0.161,0.073,0.425,0.117,0.601,0.117c0.483,0,0.805-0.161,1.055-0.747
				l0.469-1.069l-2.959-7.148h1.187l2.358,5.8l2.344-5.8h1.201l-3.545,8.51c-0.425,1.025-1.143,1.421-2.08,1.435
				c-0.234,0-0.601-0.044-0.805-0.103L247.529,477.061z"/>
		</g>
	</g>
</g>
</svg>
