<svg version="1.1" xmlns="http://www.w3.org/2000/svg" xmlns:xlink="http://www.w3.org/1999/xlink"
	 viewBox="20 140 225 30" xml:space="preserve">
<g>
		<g>
			<g>
				<path style="fill:#1D1D1B;" d="M53.098,156.25c-7.066-0.046-12.848,4.952-19.94,5.27c-0.436,0.038-0.874-0.016-1.312-0.02
					c-0.435,0.001-0.886-0.069-1.318-0.178c-0.844-0.224-1.769-0.633-2.227-1.528c-0.221-0.433-0.274-0.961-0.137-1.432
					c0.129-0.474,0.413-0.879,0.758-1.2c0.697-0.662,1.699-0.882,2.589-0.845c0.909,0.029,1.765,0.248,2.605,0.452
					c0.845,0.205,1.68,0.442,2.511,0.694c1.659,0.509,3.292,1.09,4.911,1.697c3.236,1.214,6.429,2.523,9.71,3.516
					c3.276,0.982,6.663,1.663,10.056,1.598c3.382-0.054,6.747-0.924,9.603-2.728c2.875-1.779,5.218-4.317,7.322-7.006l0.667-0.852
					l0.188,1.072c0.229,1.305,1.107,2.451,2.333,3.032c1.205,0.594,2.663,0.741,3.941,0.324c1.288-0.38,2.337-1.371,2.951-2.587
					c0.626-1.213,0.834-2.648,0.619-3.996c-0.441-2.73-2.631-5.019-5.203-6.061c-2.571-1.064-5.71-0.974-7.954,0.662
					c-2.253,1.63-3.528,4.469-3.525,7.273c-0.025,2.824,1.073,5.647,2.92,7.8c1.847,2.167,4.451,3.644,7.223,4.371
					c2.781,0.752,5.737,0.748,8.567,0.148c2.839-0.585,5.548-1.746,8.065-3.211c2.522-1.471,4.844-3.288,7.186-5.091
					c2.34-1.804,4.725-3.607,7.356-5.037c2.615-1.43,5.518-2.472,8.535-2.644c1.501-0.086,3.021,0.016,4.489,0.389
					c1.454,0.393,2.893,1.016,3.991,2.123c2.186,2.183,2.557,5.933,0.703,8.404c-0.902,1.214-2.318,2.094-3.854,2.152
					c-1.508,0.073-3.107-0.766-3.655-2.219c-0.282-0.7-0.329-1.507-0.06-2.217c0.268-0.709,0.835-1.288,1.523-1.586
					c1.405-0.687,3.233,0.422,3.3,1.947c-0.1-1.525-1.926-2.563-3.267-1.871c-0.662,0.301-1.198,0.872-1.44,1.553
					c-0.244,0.682-0.184,1.451,0.096,2.112c0.545,1.37,2.07,2.128,3.492,2.035c1.442-0.08,2.77-0.937,3.599-2.1
					c1.708-2.357,1.272-5.889-0.786-7.859c-1.014-0.986-2.395-1.574-3.778-1.932c-1.403-0.341-2.867-0.425-4.313-0.327
					c-2.905,0.196-5.695,1.227-8.238,2.652c-2.556,1.423-4.889,3.223-7.207,5.049c-2.32,1.824-4.647,3.689-7.222,5.228
					c-2.568,1.535-5.369,2.731-8.323,3.357c-2.944,0.635-6.062,0.655-9.001-0.13c-2.932-0.76-5.718-2.313-7.728-4.653
					c-2.002-2.323-3.201-5.351-3.188-8.45c-0.007-3.083,1.364-6.239,3.929-8.114c5.331-3.807,13.655-0.327,14.783,6.087
					c0.243,1.568,0,3.203-0.733,4.618c-0.714,1.411-1.985,2.616-3.553,3.075c-1.544,0.489-3.241,0.313-4.678-0.399
					c-1.455-0.69-2.578-2.129-2.845-3.751l0.855,0.22c-2.146,2.721-4.568,5.342-7.593,7.201c-3.005,1.88-6.567,2.805-10.078,2.816
					c-3.525,0.03-6.982-0.709-10.295-1.739c-3.319-1.043-6.508-2.391-9.72-3.633c-1.606-0.621-3.22-1.214-4.856-1.735
					c-0.819-0.257-1.641-0.5-2.472-0.711c-0.831-0.213-1.661-0.429-2.481-0.461c-0.819-0.037-1.633,0.145-2.218,0.679
					c-0.597,0.507-0.89,1.342-0.543,2.033c0.324,0.691,1.123,1.104,1.907,1.32c0.796,0.224,1.666,0.214,2.511,0.232
					C40.062,160.979,46.037,156.076,53.098,156.25z"/>
			</g>
			<g>
				<path style="fill:#1D1D1B;" d="M212.085,156.25c7.061-0.174,13.036,4.729,19.95,4.888c0.845-0.018,1.715-0.008,2.511-0.232
					c0.784-0.216,1.583-0.629,1.907-1.32c0.347-0.691,0.055-1.526-0.543-2.033c-0.585-0.535-1.399-0.716-2.218-0.679
					c-0.82,0.033-1.65,0.249-2.481,0.461c-0.83,0.211-1.653,0.454-2.472,0.711c-1.636,0.521-3.25,1.114-4.856,1.735
					c-3.212,1.243-6.401,2.59-9.72,3.633c-3.313,1.03-6.771,1.77-10.295,1.739c-3.511-0.011-7.073-0.937-10.078-2.816
					c-3.025-1.859-5.447-4.479-7.593-7.201l0.855-0.22c-0.267,1.623-1.39,3.062-2.845,3.751c-1.437,0.712-3.133,0.888-4.678,0.399
					c-1.568-0.459-2.84-1.664-3.553-3.075c-0.733-1.416-0.976-3.051-0.733-4.618c1.128-6.415,9.452-9.894,14.783-6.087
					c2.565,1.875,3.936,5.031,3.929,8.114c0.013,3.099-1.187,6.127-3.188,8.45c-2.01,2.34-4.796,3.893-7.728,4.653
					c-2.939,0.785-6.057,0.765-9.001,0.13c-2.955-0.625-5.755-1.822-8.323-3.357c-2.574-1.539-4.902-3.403-7.222-5.228
					c-2.318-1.826-4.651-3.626-7.207-5.049c-2.543-1.424-5.333-2.455-8.238-2.652c-1.446-0.098-2.911-0.014-4.313,0.327
					c-1.383,0.359-2.764,0.946-3.778,1.932c-2.058,1.97-2.494,5.502-0.786,7.859c0.83,1.162,2.157,2.02,3.599,2.1
					c1.422,0.093,2.947-0.665,3.492-2.035c0.281-0.661,0.341-1.43,0.096-2.112c-0.242-0.681-0.778-1.252-1.44-1.553
					c-1.341-0.692-3.167,0.346-3.267,1.871c0.067-1.525,1.895-2.633,3.3-1.947c0.689,0.298,1.255,0.876,1.523,1.586
					c0.269,0.711,0.222,1.518-0.06,2.217c-0.548,1.453-2.147,2.292-3.655,2.219c-1.536-0.058-2.952-0.938-3.854-2.152
					c-1.855-2.471-1.483-6.221,0.703-8.404c1.098-1.108,2.536-1.73,3.991-2.123c1.468-0.373,2.989-0.475,4.489-0.389
					c3.017,0.172,5.92,1.214,8.535,2.644c2.631,1.429,5.016,3.233,7.356,5.037c2.342,1.803,4.664,3.62,7.186,5.091
					c2.517,1.465,5.225,2.626,8.065,3.211c2.83,0.599,5.786,0.604,8.567-0.148c2.772-0.728,5.377-2.204,7.223-4.371
					c1.847-2.153,2.945-4.977,2.92-7.8c0.002-2.804-1.272-5.643-3.525-7.273c-2.244-1.636-5.383-1.726-7.954-0.662
					c-2.572,1.042-4.762,3.331-5.203,6.061c-0.216,1.349-0.007,2.783,0.619,3.996c0.614,1.215,1.664,2.207,2.951,2.587
					c1.277,0.416,2.736,0.269,3.941-0.324c1.226-0.582,2.104-1.727,2.333-3.032l0.188-1.072l0.667,0.852
					c2.104,2.689,4.447,5.227,7.322,7.006c2.855,1.804,6.22,2.674,9.603,2.728c3.393,0.066,6.781-0.616,10.056-1.598
					c3.28-0.993,6.474-2.302,9.71-3.516c1.619-0.607,3.252-1.188,4.911-1.697c0.831-0.251,1.666-0.489,2.511-0.694
					c0.839-0.204,1.695-0.423,2.605-0.452c0.89-0.036,1.892,0.183,2.589,0.845c0.344,0.321,0.629,0.726,0.758,1.2
					c0.137,0.471,0.084,0.999-0.137,1.432c-0.458,0.895-1.383,1.304-2.227,1.528c-0.432,0.109-0.883,0.178-1.318,0.178
					c-0.438,0.004-0.876,0.059-1.312,0.02C224.933,161.202,219.152,156.204,212.085,156.25z"/>
			</g>
		</g>
		<g>
			<path style="fill:#1D1D1B;" d="M133.353,145.618c0,2.055-1.182,3.721-1.182,3.721s-1.182-1.666-1.182-3.721
				c0-2.055,0.529-3.721,1.182-3.721C132.824,141.897,133.353,143.563,133.353,145.618z"/>
			<path style="fill:#1D1D1B;" d="M135.362,147.966c-0.497,0.917-1.428,1.374-1.428,1.374s-0.124-1.029,0.373-1.946
				c0.497-0.917,1.136-1.532,1.428-1.374C136.026,146.178,135.859,147.049,135.362,147.966z"/>
			<path style="fill:#1D1D1B;" d="M130.215,147.4c0.486,0.923,0.349,1.95,0.349,1.95s-0.925-0.469-1.41-1.392
				c-0.486-0.923-0.642-1.796-0.349-1.95C129.098,145.854,129.729,146.477,130.215,147.4z"/>
		</g>
	</g>
   </svg>