<svg version="1.1" xmlns="http://www.w3.org/2000/svg" xmlns:xlink="http://www.w3.org/1999/xlink"
	 viewBox="263 160 200 35" xml:space="preserve">
   <g>
		<g>
			<path style="fill:#262132;" d="M273.296,186.03c-0.668,0.634-1.553,0.987-2.464,0.981c-0.911,0.001-1.822-0.327-2.609-0.846
				c-1.585-1.046-2.71-2.798-3.185-4.695c-0.502-1.893-0.498-3.888-0.148-5.759c0.34-1.879,1.036-3.649,2.001-5.215
				c1.976-3.158,5.116-5.097,8.163-6.055c3.072-0.981,6.085-1.252,8.945-1.238c2.856,0.038,5.553,0.398,8.01,0.993
				c1.245,0.248,2.405,0.634,3.547,0.945c1.114,0.383,2.214,0.703,3.228,1.113c4.103,1.542,7.417,3.184,10.049,4.526l0.309,0.16
				c2.419,1.247,4.232,2.257,5.456,2.931c1.218,0.681,1.847,1.032,1.847,1.032c5.029,2.833,9.816,5.443,14.328,7.406
				c4.497,2.003,8.713,3.269,12.341,3.915c3.631,0.656,6.662,0.592,8.804,0.427c1.083-0.029,1.93-0.17,2.55-0.193
				c0.619-0.028,1.004,0.015,1.114,0.14c0.219,0.236-0.671,0.831-2.579,1.579c-1.915,0.679-4.915,1.338-8.707,1.251
				c-1.897-0.008-3.965-0.289-6.171-0.695c-2.187-0.472-4.521-1.075-6.892-1.948c-4.775-1.673-9.779-4.164-14.868-6.995
				c-7.837-4.361-15.732-9.135-23.855-11.683c-4.041-1.294-8.122-1.897-12.007-1.751c-3.899,0.152-7.559,1.076-10.162,3.231
				c-2.616,2.091-4.026,5.331-4.394,8.234c-0.169,1.457-0.104,2.871,0.221,4.087c0.313,1.204,0.877,2.245,1.559,3.01
				c0.676,0.774,1.443,1.296,2.161,1.568c0.721,0.277,1.383,0.293,1.902,0.211C272.831,186.475,273.286,185.992,273.296,186.03z"/>
		</g>
		<g>
			<path style="fill:#262132;" d="M280.388,179.32c0.231-1.308,0.827-2.544,1.658-3.579c0.841-1.028,1.896-1.853,3.029-2.484
				c2.263-1.283,4.905-1.702,7.321-1.492c2.436,0.181,4.698,0.845,6.76,1.594c2.067,0.756,3.951,1.602,5.727,2.354
				c7.111,3.075,12.669,5.292,16.442,6.619l0.221,0.08c1.738,0.597,3.068,1.058,3.973,1.331c0.901,0.29,1.365,0.439,1.365,0.439
				c3.749,1.16,7.379,2.035,10.728,2.615c3.346,0.585,6.424,0.817,9.017,0.955c2.576,0.103,4.611-0.104,6.045-0.393
				c1.432-0.282,2.293-0.573,2.544-0.363c0.237,0.179-0.176,0.885-1.415,1.729c-1.227,0.843-3.331,1.678-6,2.055
				c-2.663,0.384-5.822,0.45-9.37,0.164c-3.537-0.296-7.407-1.021-11.362-2.165c-6.134-1.752-12.155-4.407-17.729-7.173
				c-2.789-1.382-5.473-2.812-8.018-4.172c-2.525-1.355-4.907-2.541-7.213-3.248c-2.308-0.705-4.505-0.924-6.414-0.565
				c-1.927,0.328-3.518,1.128-4.657,2.001c-1.129,0.896-1.803,1.863-2.165,2.566c-0.196,0.348-0.299,0.639-0.373,0.834
				C280.427,179.219,280.388,179.32,280.388,179.32z"/>
		</g>
		<g>
			<path style="fill:#262132;" d="M362.701,186.877c-1.681,0.052-3.32-0.386-4.73-1.085c-1.409-0.711-2.591-1.687-3.512-2.739
				c-0.449-0.536-0.859-1.074-1.184-1.627c-0.161-0.254-0.341-0.578-0.477-0.9c-0.142-0.317-0.25-0.634-0.341-0.949
				c-0.179-0.63-0.271-1.259-0.264-1.895c0-0.702,0.195-1.501,0.467-2.05l0.066-0.135c0.55-1.052,1.355-1.527,1.88-1.754
				c0.543-0.222,0.853-0.23,0.853-0.23c0.601-0.09,1.219-0.012,1.794,0.181c0.29,0.104,0.559,0.222,0.833,0.386
				c0.225,0.132,0.434,0.284,0.631,0.449c0.802,0.692,1.221,1.442,1.532,2.107c0.299,0.666,0.467,1.243,0.603,1.735
				c0.138,0.503,0.254,0.979,0.346,1.423c0.366,1.774,0.347,3.024-0.144,3.329s-1.362-0.394-2.372-1.769
				c-0.253-0.344-0.514-0.73-0.78-1.153c-0.26-0.426-0.522-0.855-0.788-1.29c-0.251-0.394-0.5-0.704-0.715-0.877
				c-0.102-0.08-0.168-0.112-0.261-0.15c0.005,0.016-0.011,0.021-0.009,0.029c-0.001,0.025,0.006-0.009-0.039-0.002
				c-0.009,0.029,0.002-0.059-0.017,0.022l-0.023,0.183c-0.007,0.136-0.014,0.286,0,0.448c0.021,0.321,0.083,0.666,0.176,0.975
				c0.533,1.602,1.417,3.064,2.386,4.193c0.972,1.13,2.011,1.931,2.794,2.425c0.393,0.244,0.717,0.431,0.945,0.54
				C362.576,186.813,362.701,186.877,362.701,186.877z"/>
		</g>
		<g>
			<path style="fill:#262132;" d="M452.264,186.03c0.668,0.634,1.553,0.987,2.464,0.981c0.911,0.001,1.822-0.327,2.609-0.846
				c1.585-1.046,2.71-2.798,3.186-4.695c0.502-1.893,0.498-3.888,0.148-5.759c-0.34-1.879-1.036-3.649-2.001-5.215
				c-1.976-3.158-5.116-5.097-8.163-6.055c-3.072-0.981-6.085-1.252-8.945-1.238c-2.856,0.038-5.553,0.398-8.01,0.993
				c-1.245,0.248-2.405,0.634-3.547,0.945c-1.114,0.383-2.214,0.703-3.228,1.113c-4.103,1.542-7.417,3.184-10.049,4.526l-0.309,0.16
				c-2.419,1.247-4.232,2.257-5.456,2.931c-1.218,0.681-1.847,1.032-1.847,1.032c-5.029,2.833-9.816,5.443-14.328,7.406
				c-4.497,2.003-8.713,3.269-12.341,3.915c-3.631,0.656-6.662,0.592-8.804,0.427c-1.083-0.029-1.93-0.17-2.55-0.193
				c-0.619-0.028-1.004,0.015-1.114,0.14c-0.219,0.236,0.671,0.831,2.579,1.579c1.915,0.679,4.914,1.338,8.707,1.251
				c1.897-0.008,3.965-0.289,6.171-0.695c2.187-0.472,4.521-1.075,6.892-1.948c4.775-1.673,9.779-4.164,14.868-6.995
				c7.837-4.361,15.732-9.135,23.855-11.683c4.042-1.294,8.122-1.897,12.007-1.751c3.899,0.152,7.559,1.076,10.162,3.231
				c2.616,2.091,4.026,5.331,4.394,8.234c0.169,1.457,0.104,2.871-0.221,4.087c-0.313,1.204-0.877,2.245-1.559,3.01
				c-0.676,0.774-1.443,1.296-2.161,1.568c-0.721,0.277-1.383,0.293-1.902,0.211C452.729,186.475,452.275,185.992,452.264,186.03z"
				/>
		</g>
		<g>
			<path style="fill:#262132;" d="M445.173,179.32c-0.231-1.308-0.827-2.544-1.658-3.579c-0.841-1.028-1.896-1.853-3.029-2.484
				c-2.263-1.283-4.905-1.702-7.321-1.492c-2.436,0.181-4.698,0.845-6.76,1.594c-2.067,0.756-3.951,1.602-5.727,2.354
				c-7.112,3.075-12.669,5.292-16.442,6.619l-0.221,0.08c-1.738,0.597-3.068,1.058-3.973,1.331c-0.901,0.29-1.365,0.439-1.365,0.439
				c-3.749,1.16-7.379,2.035-10.728,2.615c-3.346,0.585-6.424,0.817-9.017,0.955c-2.576,0.103-4.611-0.104-6.045-0.393
				c-1.432-0.282-2.293-0.573-2.544-0.363c-0.237,0.179,0.175,0.885,1.414,1.729c1.227,0.843,3.331,1.678,6,2.055
				c2.663,0.384,5.822,0.45,9.37,0.164c3.537-0.296,7.407-1.021,11.362-2.165c6.134-1.752,12.155-4.407,17.729-7.173
				c2.789-1.382,5.473-2.812,8.018-4.172c2.525-1.355,4.907-2.541,7.213-3.248c2.308-0.705,4.505-0.924,6.414-0.565
				c1.927,0.328,3.518,1.128,4.657,2.001c1.129,0.896,1.803,1.863,2.165,2.566c0.196,0.348,0.299,0.639,0.373,0.834
				C445.133,179.219,445.173,179.32,445.173,179.32z"/>
		</g>
		<g>
			<path style="fill:#262132;" d="M362.86,186.877c1.681,0.052,3.32-0.386,4.73-1.085c1.409-0.711,2.591-1.687,3.512-2.739
				c0.449-0.536,0.859-1.074,1.184-1.627c0.161-0.254,0.341-0.578,0.476-0.9c0.142-0.317,0.25-0.634,0.341-0.949
				c0.179-0.63,0.271-1.259,0.264-1.895c0-0.702-0.196-1.501-0.467-2.05l-0.066-0.135c-0.55-1.052-1.355-1.527-1.88-1.754
				c-0.543-0.222-0.853-0.23-0.853-0.23c-0.601-0.09-1.219-0.012-1.794,0.181c-0.289,0.104-0.559,0.222-0.833,0.386
				c-0.225,0.132-0.434,0.284-0.631,0.449c-0.802,0.692-1.221,1.442-1.532,2.107c-0.299,0.666-0.466,1.243-0.603,1.735
				c-0.138,0.503-0.254,0.979-0.346,1.423c-0.366,1.774-0.347,3.024,0.144,3.329s1.362-0.394,2.372-1.769
				c0.253-0.344,0.514-0.73,0.78-1.153c0.26-0.426,0.522-0.855,0.788-1.29c0.251-0.394,0.5-0.704,0.715-0.877
				c0.102-0.08,0.168-0.112,0.261-0.15c-0.005,0.016,0.011,0.021,0.009,0.029c0.001,0.025-0.006-0.009,0.039-0.002
				c0.01,0.029-0.002-0.059,0.017,0.022l0.023,0.183c0.007,0.136,0.014,0.286,0,0.448c-0.021,0.321-0.083,0.666-0.176,0.975
				c-0.533,1.602-1.417,3.064-2.386,4.193c-0.972,1.13-2.011,1.931-2.794,2.425c-0.393,0.244-0.717,0.431-0.945,0.54
				C362.985,186.813,362.86,186.877,362.86,186.877z"/>
		</g>
	</g>
   </svg>